<svg xmlns="http://www.w3.org/2000/svg" fill="none" viewBox="0 0 50 50"><rect width="12.3" height="44" y="6" fill="currentColor" rx="2"/><rect width="12.3" height="44" x="15.8" y="6" fill="currentColor" rx="2"/><path fill="currentColor" d="M28.5 17.2c-.2-1 .4-1.9 1.4-2l5.2-1c1-.1 1.9.5 2 1.5l5.5 31.2c.2 1-.4 1.8-1.4 2l-5.2 1c-1 0-1.9-.6-2-1.5l-5.5-31.2z"/><rect width="5.3" height="1.8" x="3.5" y="13" fill="#fff" rx=".9"/><rect width="5.3" height="1.8" x="19.4" y="13" fill="#fff" rx=".9"/><rect width="5.3" height="1.8" x="3.5" y="17.4" fill="#fff" rx=".9"/><rect width="5.3" height="1.8" x="19.4" y="17.4" fill="#fff" rx=".9"/><rect width="5.3" height="1.8" x="3.5" y="42.1" fill="#fff" rx=".9"/><rect width="5.3" height="1.8" x="19.4" y="42.1" fill="#fff" rx=".9"/><rect width="5.3" height="1.8" x="34.2" y="38.2" fill="#fff" rx=".9" transform="rotate(-10 34.2 38.2)"/></svg>