<svg xmlns="http://www.w3.org/2000/svg" fill="none" viewBox="0 0 50 50"><path fill="currentColor" stroke="currentColor" stroke-width="4" d="M7.6 37l1.3.4 1.5.3 4.1.3a198.8 198.8 0 0027.3-.6c.3 0 .9-.3 1.4-.6.4-.3 1.2-1 2-2 .9-1 1.8-2.2 2.3-3.8a6 6 0 00-.7-5.3c-1-1.5-2.4-2.7-4.5-3.7.3-1.8.4-3.4.2-4.8a5 5 0 00-3-4 7.7 7.7 0 00-5-.1c-1 .3-2.3.7-3.5 1.3-2.8-5.8-7.7-8.3-12.4-7.4-4.8.8-8.5 5-8.7 11.2-2.8.8-4.8 2-6.1 3.7-1.6 2-2 4.3-1.7 6.4A13.1 13.1 0 007.6 37z"/><path fill="#fff" d="M27.4 22.8c0 .3 0 .5-.2.7a1 1 0 01-.4.4c.2 0 .3.2.4.5.2.1.2.4.2.6v.5l-.2.7c0 .4.2.7.4 1 .3.3.6.4 1 .4.5 0 1-.2 1.3-.7.4-.6.5-1.3.5-2.4a6 6 0 00-2.7-5 6 6 0 00-3.3-1 7 7 0 00-3.4 1c-1 .5-2 1.3-2.6 2.3a7 7 0 00-1 3.9 6 6 0 003.6 6 9 9 0 003.6.6 6 6 0 003.2-.9l.8-.3c.3 0 .6.1.9.4.2.2.3.4.3.7 0 .3 0 .5-.2.7a3 3 0 01-.7.7c-1 .7-2.4 1-4.6 1-1.7 0-3.4-.3-4.8-1a8 8 0 01-3.3-3.2 9.8 9.8 0 010-9.7 9.5 9.5 0 0112.5-3.5 8.4 8.4 0 014.2 7.3 5.8 5.8 0 01-2.1 4.8 3.8 3.8 0 01-3.9.2 4 4 0 01-1.4-1.3c-.8 1-1.7 1.4-2.7 1.4-1 0-1.7-.3-2.4-.9-.6-.6-.9-1.5-.9-2.8a5.1 5.1 0 012.3-4.4 4 4 0 012.3-.7c.9 0 1.7.3 2.5.8l.6.6.2.6zM25 24.6c.2-.3.4-.6.7-.7l-.4-.2a6 6 0 00-.6-.3l-.6-.1a2 2 0 00-1.5.8 3 3 0 00-.7 1.8c0 .8.3 1.2 1 1.2.3 0 .8-.2 1.2-.8a9 9 0 001-1.7z"/></svg>