<svg xmlns="http://www.w3.org/2000/svg" fill="none" viewBox="0 0 50 50"><rect width="16.9" height="16.9" x="9" y="21.1" fill="currentColor" rx="2"/><rect width="16.9" height="16.9" x="28.1" y="21.1" fill="currentColor" rx="2"/><rect width="16.9" height="16.9" x="18.5" y="2" fill="currentColor" rx="2"/><path fill="#fff" d="M29.5 14.7l-.7-2.2h-3.3l-.7 2.2h-2L26 5.6h2.3l3.2 9.1h-2zM28.3 11a1852.8 1852.8 0 01-1.1-4L26 11h2.3zM14.4 24.7h2.8c1.3 0 2.2.2 2.8.5.6.4.9 1 .9 1.8 0 .5-.2 1-.4 1.3-.3.4-.6.6-1 .7.6.1 1 .4 1.2.7.3.4.4.9.4 1.4 0 .9-.3 1.5-.9 2-.6.4-1.4.7-2.4.7h-3.4v-9.1zm1.9 3.6h1.1c.5 0 1 0 1.1-.3.3-.1.4-.4.4-.8 0-.3-.1-.6-.4-.7-.2-.2-.6-.2-1.2-.2h-1v2zm0 1.5v2.4h1.3c.5 0 .9-.1 1.1-.3.3-.2.4-.5.4-1 0-.7-.5-1-1.6-1h-1.2zm21-3.6a2 2 0 00-1.7.8c-.4.5-.6 1.3-.6 2.3 0 2 .8 3 2.3 3a8 8 0 002.3-.5v1.6c-.7.3-1.6.5-2.5.5-1.3 0-2.3-.4-3-1.2-.7-.8-1-2-1-3.5 0-.9.1-1.7.4-2.4a5 5 0 011.5-1.7 5.8 5.8 0 014.9.1l-.6 1.6-1-.5a3 3 0 00-1-.1z"/></svg>