<svg xmlns="http://www.w3.org/2000/svg" fill="none" viewBox="0 0 50 50"><path fill="currentColor" d="M13 1.5c0-.8.7-1.5 1.5-1.5h22.3L47 10.2v30c0 .8-.7 1.5-1.5 1.5h-31c-.8 0-1.5-.7-1.5-1.6V1.5z"/><path fill="#fff" d="M36.8 0L47 10.2h-8.7c-.8 0-1.5-.7-1.5-1.5V0zM18.9 25.3c0-.6.4-1 1-1h18.4c.6 0 1 .4 1 1s-.4 1-1 1H20a1 1 0 01-1-1zm0 6.1c0-.5.4-1 1-1h12.3c.5 0 1 .5 1 1 0 .6-.5 1-1 1H19.9a1 1 0 01-1-1zm0-18.4c0-.5.4-1 1-1h12.3c.5 0 1 .5 1 1 0 .6-.5 1-1 1H19.9a1 1 0 01-1-1zm0 6.2c0-.6.4-1 1-1h18.4c.6 0 1 .4 1 1 0 .5-.4 1-1 1H20a1 1 0 01-1-1z"/></svg>