<svg xmlns="http://www.w3.org/2000/svg" fill="none" viewBox="0 0 50 50"><path fill="#fff" d="M18.6 28.1H30l-1.9 14.3h-6.6l-2.9-14.3z"/><path fill="currentColor" d="M27.2 47.5h-5a1.3 1.3 0 100 2.5h5a1.3 1.3 0 000-2.5zm1.3-3.8h-7.6a1.3 1.3 0 100 2.5h7.6a1.3 1.3 0 100-2.5zm5.1-28A12.6 12.6 0 0019.8 13 12.6 12.6 0 0012 24.7a13 13 0 003.9 9.4l.3.4c1.5 1.3 3.4 3.1 3.4 4.7v2a1.3 1.3 0 001.3 1.2h1.9a.6.6 0 00.6-.6v-9.3a.6.6 0 00-.4-.6l-2-1.1a1.3 1.3 0 111.4-2.1c.6.4 1.7 1 2.3 1 .5 0 1.7-.6 2.2-1a1.3 1.3 0 011.5 2c-.6.5-1.3.9-2 1.2a.6.6 0 00-.5.6v9.3a.6.6 0 00.7.6h1.9a1.3 1.3 0 001.2-1.3v-1.9c0-1.5 2-3.4 3.4-4.7l.4-.4c2.5-2.4 3.8-5.7 3.8-9.4a12.6 12.6 0 00-3.7-9z"/></svg>