<svg xmlns="http://www.w3.org/2000/svg" fill="none" viewBox="0 0 50 50"><path fill="currentColor" d="M22.5 5.5l-9.7-4.3A2 2 0 0010 3.1v29.8a2 2 0 001.2 1.8l11.3 5c.5.2 1.1.2 1.6 0L36 34.4a2 2 0 011.6 0l9.7 4.3a2 2 0 002.8-1.9V7.1a2 2 0 00-1.2-1.8L37.5.3a2 2 0 00-1.6 0L24 5.6a2 2 0 01-1.6 0z"/><path fill="#fff" fill-rule="evenodd" d="M16.3 12c0-.4.4-.7.9-.7l1.5.2a.8.8 0 01-.1 1.6L17 13a.8.8 0 01-.7-1zm5.3.6c0-.5.4-.8.9-.8l3.1.3a.8.8 0 01-.2 1.7l-3-.3a.8.8 0 01-.8-1zm6.8.6c0-.5.5-.8 1-.8l1.5.2a.8.8 0 01.6 1.4L30 15.4a.8.8 0 01-1.2-1l.2-.3a.8.8 0 01-.7-.9zM27 17.8c.3.3.4.8 0 1.2l-2.6 2.9a.8.8 0 01-1.2-1.1l2.6-3c.3-.3.8-.3 1.2 0zm14.7 1.9c.4 0 .9.3.9.7l.2 2a.8.8 0 11-1.7 0l-.2-1.8c0-.5.3-.9.8-1zM21 24.2c.3.4.3.9 0 1.2l-.2.3h.1a.8.8 0 11-.2 1.6l-1.7-.1a.8.8 0 01-.6-1.4l1.4-1.5c.3-.3.8-.4 1.2 0zm21.1 2c.5-.1.9.2 1 .7l.1 1.8a.8.8 0 01-.9 1l-1.8-.2a.8.8 0 01.2-1.7h.8l-.1-.8c0-.4.3-.8.7-.9zm-17.9.7a1 1 0 011-.8l3.5.4a.8.8 0 11-.2 1.7l-3.5-.4a.8.8 0 01-.8-1zm7.8.8c0-.4.5-.8 1-.7l3.5.4a.8.8 0 01-.2 1.6l-3.5-.4a.8.8 0 01-.8-.9zM36.8 13c.3-.4.8-.5 1.2-.2l5.8 4.1a.8.8 0 01-1 1.4L37 14a.8.8 0 01-.2-1.1z" clip-rule="evenodd"/><path fill="#fff" fill-rule="evenodd" d="M42.7 11.5c.4.2.6.7.4 1.1l-3.4 6.6a.8.8 0 11-1.5-.8l3.4-6.5c.2-.5.7-.6 1.1-.4z" clip-rule="evenodd"/></svg>