<svg xmlns="http://www.w3.org/2000/svg" fill="none" viewBox="0 0 50 50"><path fill="currentColor" stroke="currentColor" stroke-width="3" d="M20.7 17.3c.5-2.4-.5-5-1.5-7-.5-1-1.1-1.8-1.7-2.4a6 6 0 00-.9-.9 3 3 0 00-.5-.3 2 2 0 00-1-.2c-4.1.3-7 1.7-8.5 4.2C5.2 13 5.3 16 6 18.9c1.5 5.7 6 12.1 9.7 15.7 4 3.8 11.8 7.8 18.7 9 3.4.5 6.8.4 9.4-1C46.6 41 48.1 38 48 34c0-.8-.4-1.3-.7-1.6l-1-1-3-1.6a20 20 0 00-4.7-1.4c-.5 0-1 0-1.5.2a4.4 4.4 0 00-2.4 1.8l-1 1.9-.1.3-.6 1a97.6 97.6 0 01-13.5-9.3l-1.4-1.6a2 2 0 01-.4-.7c0-.5.2-.8 1-1.4v-.2c.7-.6 1.7-1.6 2-3.1z"/><rect width="3" height="10" x="12.2" y="9.2" fill="#fff" rx="1.5" transform="rotate(-24 12.2 9.2)"/><path fill="#fff" d="M37.9 33.1a1.5 1.5 0 111.2-2.7l6.4 2.8c.7.4 1 1.2.7 2-.3.8-1.2 1-2 .8L38 33z"/><path stroke="currentColor" stroke-linecap="round" stroke-width="2" d="M23 5.5L26.5 2m0 7l2-1L32 6.5m-5.5 7.3h5"/></svg>