<svg xmlns="http://www.w3.org/2000/svg" fill="none" viewBox="0 0 50 50"><path fill="currentColor" d="M39.1 32.6c0-.3.1-.8.3-1 0-.2.1-.2.2-.3a14 14 0 002.4-7.8C42 15.5 35.3 9 27 9a15 15 0 00-15 14.5 14.7 14.7 0 0018.8 14l2.2-.8a2.3 2.3 0 011.7 0l4.9 1.8h.3a.7.7 0 00.7-.6v-.3l-1.5-5z"/><path fill="currentColor" d="M7.6 25a12.7 12.7 0 00.6 13c.2.3.3.6.2.7l-1 5.4a.7.7 0 00.2.6.7.7 0 00.7.1l4.9-1.9h1a13.8 13.8 0 0012.2-.8C14.2 40.8 10.6 37.3 7.6 25z"/><circle cx="20" cy="24" r="2" fill="#fff"/><circle cx="27" cy="24" r="2" fill="#fff"/><circle cx="34" cy="24" r="2" fill="#fff"/></svg>