<svg xmlns="http://www.w3.org/2000/svg" fill="none" viewBox="0 0 50 50"><path fill="currentColor" d="M19.5 33c.6 2.9-.8 10-.8 10H26s-2.4-8.7-1.1-11.9l5-2.7-1.3-1.3S26 29 25 29c-.3-1.2 1.8-4.3 1.8-4.3h-1.3s-1.7 4.8-2.9 4.8c-1-.6-.9-5.2-.9-5.2h-1.6s1.2 5.2.6 6.4c-2 0-4.3-3-4.3-3l-1.4 2s3.3 1.5 4.5 3.4z"/><path fill="currentColor" d="M36.8 23.6c-1.8 6.5-5 8.2-11 3.3-2.8.7-3.8.8-6-.6-3.6 5.1-9 7.6-12 0-4-1-5-5.4-2.2-9.2-1-3.3-1.1-6.9 5-8.2 1.2-2.4 2.4-5.1 8.2-2.8 1.7-2.2 7-6.6 11 1.9 3.2 0 5.9.5 6.7 6.4 1.7.8 4.8 4.1.3 9.2z"/><circle cx="14.5" cy="21.7" r="1.8" fill="#fff"/><circle cx="16.4" cy="12" r="1.8" fill="#fff"/><circle cx="25.1" cy="21.7" r="1.8" fill="#fff"/><circle cx="30.1" cy="14.3" r="1.8" fill="#fff"/></svg>