<svg xmlns="http://www.w3.org/2000/svg" fill="none" viewBox="0 0 260 260">
  <mask id="a" mask-type="alpha" width="260" height="184" x="0" y="55" maskUnits="userSpaceOnUse">
    <rect width="260" height="184" transform="matrix(1 0 0 -1 0 239)" fill="black"/>
  </mask>
  <g mask="url(#a)">
    <path fill="#CC864D" d="M110.6 160.5h38v28h-38z"/>
    <path fill="#D69E70" d="M36 133.6h-.5c-.5-.3 1.4-2.7-4.9-8.8.9-3.8-1-6.2-.8-8.9 1.1-3.7 1-6.8-1.9-7-2 0-3.1 4.6-3.7 7.5-1.8-2.2-12.2-13-14.3-11.3-1.7 1.4 5 8.6 4.3 9.4-.6.5-9.5-6.1-11.4-4.2-.8.8 3.4 3.7 6.4 6l2.6 2.3c-.9 1.3-10.4-3.6-11.3-1.4-.6 1.4 4 3.6 6.6 5l1.7 1.4c-.2 1-6.7-.6-7 .6-.5 1.8 10 6.6 19.8 8.1 7 1.2 2.2 1.4 13.9 1.3h.5zM223.5 137.6h.6c.4-.3-1.4-2.7 5.1-8.6-.7-3.8 1.2-6.2 1.2-8.8-1-3.7-.9-6.9 2-7 2.1 0 3 4.8 3.5 7.7 1.9-2.2 12.7-12.6 14.6-10.9 1.7 1.5-5.3 8.5-4.5 9.3.6.5 9.7-5.8 11.5-3.8.8.8-3.6 3.6-6.6 5.7l-2.6 2.3c.8 1.4 10.4-3.2 11.3-1 .5 1.4-4.1 3.4-6.8 4.8l-1.8 1.3c.2 1 6.7-.4 7 .8.4 1.8-10.1 6.2-20 7.5-7 .9-2.3 1.3-14 .8h-.5z"/>
    <path fill="#2F8D80" d="M95.6 257.5s-1.5-33.5 3.5-72c-22.5-25-73-50-73-50l5.5-13.5 84.5 45s4 16 14 16c9.5 0 16-16 16-16l80.5-37.5 11.5 10s-52 15.5-82 46c12 37 13.5 72 13.5 72h-74z"/>
    <path fill="#0A3028" d="M109.1 187.5l-6-25.5h8.5l7 25.5h24l6-25.5h9l-6.5 25.5 17 53.5h-72l13-53.5z"/>
    <circle cx="114.6" cy="193.5" r="3.5" fill="#27776C"/>
    <circle cx="146.6" cy="193.5" r="3.5" fill="#27776C"/>
    <path fill="#D69E70" d="M135 174.5a42.9 42.9 0 0036.6-26.6c12.4-1 17.7-14.7 10-22.4-2.1-2.1-5.5-1.2-7.8-.2-2.1-17.5-10.2-34.8-10.2-34.8L90 98s-4.4 24.3-1.5 39.5c0 0-7.2-2.5-9 2.5C72 160 96 160 96 160c9.6 13 22.8 16.4 39 14.5z"/>
    <path fill="#302F2B" d="M173 130.5c-8-8.5-24-16-24-16l4.5 6.5s-39.5-13.5-51-15.5c0 0-13.3 20.5-13.8 32-5.5-1-8.5 1-8.5 1s-11.7-54 40.3-71.5l-2.5 6s65.5-16.5 65.5 53c-5-1-10.5-1-10.5 4.5z"/>
    <path fill="#7D573B" d="M138.8 150h-16s-3.9 16.5 7.5 17 8.5-17 8.5-17z"/>
    <circle cx="113.6" cy="133.5" r="11.5" fill="#F2F2F2" fill-opacity=".8" stroke="#E33D0D" stroke-width="2"/>
    <circle cx="147.6" cy="133.5" r="11.5" fill="#F2F2F2" fill-opacity=".8" stroke="#E33D0D" stroke-width="2"/>
    <path stroke="#E33D0D" stroke-width="2" d="M85.6 137.5l16.5-3M159.6 132.5l13.5-3.5M125.6 132.5h10.5"/>
    <ellipse cx="114.1" cy="134" fill="#655E58" rx="2" ry="4"/>
    <ellipse cx="147.1" cy="134" fill="#655E58" rx="2" ry="4"/>
  </g>
</svg>