<svg width="24" height="24" viewBox="0 0 24 24" fill="none" xmlns="http://www.w3.org/2000/svg">
<path d="M4.75 3.75C4.19772 3.75 3.75 4.19772 3.75 4.75C3.75 5.30228 4.19772 5.75 4.75 5.75H6.21922L8.63936 15.0177C8.98768 16.3335 10.1783 17.25 11.5395 17.25H15.666C17.0582 17.25 18.2673 16.2922 18.5862 14.9371L20.2234 7.97904C20.2934 7.68166 20.2236 7.36861 20.0339 7.12913C19.8442 6.88965 19.5555 6.75 19.25 6.75H8.53078L7.97014 4.50746C7.85885 4.0623 7.45887 3.75 7 3.75H4.75Z" fill="black"/>
<path d="M10.5 21C11.3284 21 12 20.3284 12 19.5C12 18.6716 11.3284 18 10.5 18C9.67157 18 9 18.6716 9 19.5C9 20.3284 9.67157 21 10.5 21Z" fill="black"/>
<path d="M16.5 21C17.3284 21 18 20.3284 18 19.5C18 18.6716 17.3284 18 16.5 18C15.6716 18 15 18.6716 15 19.5C15 20.3284 15.6716 21 16.5 21Z" fill="black"/>
</svg>
