<svg width="16" height="12" viewBox="0 0 16 12" fill="none" xmlns="http://www.w3.org/2000/svg">
<path fill-rule="evenodd" clip-rule="evenodd" d="M0 1V11L1 12H15L16 11V1L15 0H1L0 1Z" fill="#2E42A5"/>
<path d="M1 0C0.447715 0 0 0.447715 0 1V1.68018L5.27025 5.72744L3.6149 6.8517L0 9.72609V11C0 11.5523 0.447715 12 1 12H2.5619L8.00006 7.82379L13.4382 12H15C15.5523 12 16 11.5523 16 11V9.72599L12.3852 6.8517L10.7299 5.72744L16 1.68028V1C16 0.447715 15.5523 0 15 0H12.8267L8.3229 3.65418L8.00006 3.87345L7.67722 3.65418L3.17338 0H1Z" fill="white"/>
<path d="M0.00811441 11.128C0.0709517 11.6198 0.491079 12 1 12H1.76603L8.22342 6.66909L8.72436 6.8258L14.9577 12H15C15.5523 12 16 11.5523 16 11V10.532L11.4357 6.7975L9.12017 6.00308L9.07319 5.96757L15.8066 0.408787C15.6246 0.160907 15.3311 0 15 0H13.7634L7.68446 4.91784L1.1785 0H1C0.447715 0 0 0.447715 0 1V1.05092L6.3706 5.98075L0.00811441 11.128Z" fill="#D80027"/>
<rect y="4.5" width="16" height="3" fill="white"/>
<rect x="6.5" width="3" height="12" fill="white"/>
<rect y="5.25" width="16" height="1.5" fill="#D80027"/>
<rect x="7.25" width="1.5" height="12" fill="#D80027"/>
</svg>
