<svg xmlns="http://www.w3.org/2000/svg" fill="none" viewBox="0 0 214 458">
  <path fill="#F5B7A2" d="M54 458l17.5-272H134l22.5 272H54z"/>
  <path fill="#F1997C" d="M78.4 81.3S54.4 87 35.1 76C15.7 65 8.2 41.5 8.2 41.5s24-5.6 43.4 5.4c19.3 11 26.8 34.4 26.8 34.4zM135.3 80.8s7.3-23.5 26.6-34.6c19.3-11.2 43.3-5.8 43.3-5.8S198 64 178.6 75.1c-19.3 11.1-43.3 5.7-43.3 5.7z"/>
  <path fill="#87290A" d="M77.5 27L91 23.2l12.7 47.3-13.5 3.6z"/>
  <circle cx="81.5" cy="16.5" r="13.5" fill="#87290A" transform="rotate(-15 81.5 16.5)"/>
  <path fill="#87290A" d="M123.5 22.5l13.5 3.6-12.6 47.4-13.6-3.7z"/>
  <circle cx="132.9" cy="16.5" r="13.5" fill="#87290A" transform="rotate(15 133 16.5)"/>
  <ellipse cx="105.5" cy="121" fill="#F5B7A2" rx="53.5" ry="65"/>
  <path fill="#87290A" d="M79 102a3 3 0 01-4.1 1c-1.4-.9-1.3-3.5-.4-4.9a24.3 24.3 0 016.5-6c2.2-1.4 5.1-2.5 8.4-2.5 3.3 0 6.9 1.3 10.4 4a3 3 0 11-3.6 4.8c-2.7-2.1-5-2.7-6.9-2.8-1.9 0-3.6.6-5.2 1.6a17 17 0 00-5 4.8zM121.6 99c3-1.8 5.6-2.4 7.5-2.4 1.9 0 3.5.6 4.8 1.5a12.3 12.3 0 013.9 4.2 3 3 0 004 1.4 3 3 0 001.3-4.3 15.7 15.7 0 00-1.4-2.1c-1-1.3-2.5-3-4.6-4.3-2-1.3-4.7-2.4-8-2.4-3.2 0-6.8 1-10.7 3.3a3 3 0 003.2 5.2z"/>
  <path fill="#87290A" fill-rule="evenodd" d="M56.6 417.2l2.9-44.5c1.7-.4 3.6-.7 5.5-.7 12.2 0 22 10.5 22 23.5S77.2 419 65 419c-3 0-5.8-.6-8.4-1.8zM137.5 228.2l3.9 46.8H140c-12.2 0-22-10.5-22-23.5 0-12 8.5-22 19.5-23.3z" clip-rule="evenodd"/>
  <ellipse cx="118" cy="317.5" fill="#87290A" rx="22" ry="23.5"/>
  <path fill="#87290A" fill-rule="evenodd" d="M68.2 237l3-47c11.6.7 20.8 11 20.8 23.5 0 13-9.8 23.5-22 23.5h-1.8z" clip-rule="evenodd"/>
  <ellipse cx="105.5" cy="166" fill="#F1997C" rx="69.5" ry="47"/>
  <ellipse cx="70.5" cy="151.5" fill="#87290A" rx="5.5" ry="7.5"/>
  <ellipse cx="142.5" cy="151.5" fill="#87290A" rx="5.5" ry="7.5"/>
</svg>