<svg xmlns="http://www.w3.org/2000/svg" fill="none" viewBox="0 0 260 260">
  <g clip-path="url(#clip0)">
    <mask id="a" width="230" height="249" x="15" y="55" mask-type="alpha" maskUnits="userSpaceOnUse">
      <path fill="#C4C4C4" d="M245 55v184H57.5L15 303.5V55h230z"/>
    </mask>
    <g mask="url(#a)">
      <path fill="#A55C32" d="M210.5 150.7l.5-.1c.3-.5-2-2.2 2.3-9.4-1.7-3.3-.6-6-1.4-8.5-2-3.1-2.7-6.1 0-7 1.9-.6 4 3.5 5.3 6 1.1-2.4 8.1-15.1 10.4-14 2 .8-2.5 9.3-1.5 9.8.6.3 7.2-8 9.5-6.8 1 .6-2.3 4.4-4.5 7.2l-1.8 2.8c1.1 1 8.8-6 10.2-4.2.9 1.2-2.9 4.4-5 6.5l-1.2 1.7c.4.7 6-2.3 6.7-1.3.9 1.6-7.6 8.6-16.4 12.5-6.2 2.8-1.7 1.9-12.6 4.7h-.5zM49.2 223.4v.5c-.3.5-2.6-1.3-8.5 4.7-3.6-.8-6 1-8.5.8-3.6-1-6.6-1-6.8 1.8-.1 2 4.5 3 7.2 3.6-2.1 1.8-12.5 11.8-10.9 13.8 1.4 1.6 8.3-5 9-4.1.5.5-5.8 9.1-4 11 .8.7 3.6-3.4 5.8-6.2l2.3-2.5c1.2.8-3.5 10-1.4 10.9 1.3.5 3.5-4 4.9-6.4l1.3-1.7c.9.2-.6 6.5.5 6.8 1.8.4 6.4-9.6 7.9-19 1-6.8 1.3-2.2 1.2-13.5v-.5z"/>
      <path fill="#87290A" d="M40.4 226s33.5-41.7 62.5-46.5c9.8-1.6 22 0 22 0h13.5s10.6 3.6 17.5 3c25-2 54-38.5 54-38.5l9.5 5s-28.5 40-60 49.5c-3.5 39.5 12 103.5 12 103.5l-72-5.5s12.5-78.5 3.5-93.5c-23.4-3.8-52 35-52 35l-10.5-12z"/>
      <path fill="#5D1D07" d="M99.9 180c5-1.5 11-2.5 15.5-1 0 0 21 49-13 74 3-22.5-2.5-73-2.5-73zM156.4 182.5s34 63.5 6 69.5l-12-70 6 .5z"/>
      <path fill="#A55C32" d="M97.2 162.5c7.5 28 76.5 23.5 79.5-10 25-3.5 14-30.5-3-23C154.7 63 89.2 84 91.2 139c-23.5 2-10.5 27 6 23.5z"/>
      <path fill="#452123" d="M175.8 132c2-2.5 8-3.5 11.5 0-11.5-98-122.5-52-106.5 9.5 4.5-1.5 8-1 14 1 5-5.5 12-13 12-22 6-3.5 10-1.5 13-12 6.5 3 13.5 9 24-2.5 3 4 6.5 8.5 15.5 7 2 8.5 3 11 16.5 19z"/>
      <path fill="#452123" d="M177.8 89.5c-2.9 2-5 7.5-5 7.5-5.1-2.7-13-11.6-13.5-12-.4-.4 2.9-3.9 4.5-5.5-3-1-9-5.5-.5-11-.5-7 5.5-13 15.5-7 7.5-3.5 14.5-3.5 14.5 10 8 4.5 7 15-5.5 16.5-1 4.5-6 8.5-10 1.5zM94.8 88c1.2 2.2 4 5 4 5l-7 10.5-8-1.5c-2 3.5-7.5 6-10-1-7.5 1-17-1-10-15-2-7.5-2-15.5 13.5-13.5 4.5-6 11.5-6.5 15.5 4 6 2 8 7 2 11.5z"/>
      <path stroke="#6A3B20" stroke-linecap="round" stroke-linejoin="round" stroke-width="4" d="M123.4 161.5s17 11 30-4.5"/>
      <path stroke="#522E19" stroke-linecap="round" stroke-linejoin="round" stroke-width="3" d="M113.9 139s7-9.5 16-2M142.4 134.3s6.5-9 15-1"/>
    </g>
  </g>
  <defs>
    <clipPath id="clip0">
      <path fill="#fff" d="M0 0h260v260H0z"/>
    </clipPath>
  </defs>
</svg>