<svg xmlns="http://www.w3.org/2000/svg" fill="none" viewBox="0 0 500 400">
  <g clip-path="url(#clip0)">
    <path fill="#EAF6EA" d="M0 0h500v400H0z" style="animation:cipyAAyH_draw 2000ms ease-in-out 0ms forwards"/>
    <path fill="#B5E0B6" d="M318 293.3a40.2 28.1 30 1169.6 40.2 40.2 28.1 30 11-69.5-40.2" style="animation:cipyAAyH_draw 2000ms ease-in-out 9ms forwards"/>
    <path fill="#B5E0B6" d="M311.7 166l35.8 35.9a10 10 0 010 14.1L307 256.5a10 10 0 01-14.1 0l-35.8-35.8a10 10 0 010-14.2l40.4-40.4a10 10 0 0114.2 0" style="animation:cipyAAyH_draw 2000ms ease-in-out 18ms forwards"/>
    <path fill="#B5E0B6" d="M507 283.2l37.6 37.6a10 10 0 010 14.2l-71.8 71.7a10 10 0 01-14.1 0l-37.6-37.6a10 10 0 010-14.2l71.7-71.7a10 10 0 0114.1 0" style="animation:cipyAAyH_draw 2000ms ease-in-out 27ms forwards"/>
    <path fill="#B5E0B6" d="M221.1 283l31 31a10 10 0 010 14.1l-31 31a10 10 0 01-14.1 0l-31-31a10 10 0 010-14.1l31-31a10 10 0 0114.1 0" style="animation:cipyAAyH_draw 2000ms ease-in-out 36ms forwards"/>
    <path fill="#B5E0B6" d="M447.6 38l24 24a10 10 0 010 14.2L407.7 140a10 10 0 01-14.1 0l-24-24a10 10 0 010-14l63.8-64a10 10 0 0114.2 0" style="animation:cipyAAyH_draw 2000ms ease-in-out 45ms forwards"/>
    <path fill="#B5E0B6" d="M470.3-65l3.2 3.3a10 10 0 010 14.1L369.7 56.1a10 10 0 01-14.1 0l-3.2-3.1a10 10 0 010-14.2L456.1-64.9a10 10 0 0114.2 0" style="animation:cipyAAyH_draw 2000ms ease-in-out 54ms forwards"/>
    <path fill="#B5E0B6" d="M168.7-167.9L243-93.6a10 10 0 010 14.1L168.7-5.2a10 10 0 01-14.1 0L80.3-79.5a10 10 0 010-14.1l74.3-74.3a10 10 0 0114.1 0" style="animation:cipyAAyH_draw 2000ms ease-in-out 63ms forwards"/>
    <path fill="#B5E0B6" d="M225-42.6l88.4-88.5a10 10 0 0114.2 0l23.8 23.8a10 10 0 010 14.1L262.9-4.7a10 10 0 01-14.2 0L225-28.5a10 10 0 010-14.1" style="animation:cipyAAyH_draw 2000ms ease-in-out 72ms forwards"/>
    <path stroke="#C6EAFB" stroke-dasharray="561 563" stroke-dashoffset="562" stroke-linecap="round" stroke-linejoin="round" stroke-width="30" d="M-12 227.5h163.5l129-129V-116" style="animation:cipyAAyH_draw 2000ms ease-in-out 81ms forwards"/>
    <g stroke-linecap="round" stroke-linejoin="round" opacity=".8">
      <path stroke="#A1A5A7" stroke-dasharray="1072 1074" stroke-dashoffset="1073" stroke-width="3" d="M150.4-421.3V-213l228 231.6h538.1" style="animation:cipyAAyH_draw 2000ms ease-in-out 90ms forwards"/>
      <path stroke="#0098D8" stroke-dasharray="613 615" stroke-dashoffset="614" stroke-width="4" d="M295.5 479.5V293l-174-174V-61" style="animation:cipyAAyH_draw 2000ms ease-in-out 100ms forwards"/>
      <path stroke="#F5B7A2" stroke-dasharray="1114 1116" stroke-dashoffset="1115" stroke-width="3" d="M484.7-42.9L23.5 419.2m-160.3 160.6L23.5 419.2m0 0h-233.8" style="animation:cipyAAyH_draw 2000ms ease-in-out 109ms forwards"/>
      <path stroke="#F5B7A2" stroke-dasharray="1114 1116" stroke-dashoffset="1115" stroke-width="3" d="M481-49L19.8 413.1m-160.3 160.6L19.8 413m0 0H-214" style="animation:cipyAAyH_draw 2000ms ease-in-out 118ms forwards"/>
      <path stroke="#FFD329" stroke-dasharray="570 572" stroke-dashoffset="571" stroke-width="4" d="M-294 33.2h514.5V-22" style="animation:cipyAAyH_draw 2000ms ease-in-out 127ms forwards"/>
      <path stroke="#007D32" stroke-dasharray="586 588" stroke-dashoffset="587" stroke-width="4" d="M-291.5 40.5h520V-25" style="animation:cipyAAyH_draw 2000ms ease-in-out 136ms forwards"/>
      <path stroke="#202020" stroke-dasharray="521 523" stroke-dashoffset="522" stroke-width="4" d="M443 266H-77.5" style="animation:cipyAAyH_draw 2000ms ease-in-out 145ms forwards"/>
      <path stroke="#202020" stroke-dasharray="613 615" stroke-dashoffset="614" stroke-width="4" d="M443-78v390L285.5 469.5" style="animation:cipyAAyH_draw 2000ms ease-in-out 154ms forwards"/>
    </g>
    <path fill="#fff" stroke="#ED1C24" stroke-width="3" d="M386.5 360a7.5 7.5 0 1115 0 7.5 7.5 0 11-15 0" style="animation:cipyAAyH_draw 2000ms ease-in-out 163ms forwards" stroke-dasharray="48 50" stroke-dashoffset="49"/>
    <path stroke="#0054A6" stroke-dasharray="18 20" stroke-dashoffset="19" stroke-linecap="round" stroke-width="4" d="M385 360h18" style="animation:cipyAAyH_draw 2000ms ease-in-out 172ms forwards"/>
    <path fill="#fff" stroke="#ED1C24" stroke-width="3" d="M212.5 218a7.5 7.5 0 1115 0 7.5 7.5 0 11-15 0" style="animation:cipyAAyH_draw 2000ms ease-in-out 181ms forwards" stroke-dasharray="48 50" stroke-dashoffset="49"/>
    <path stroke="#0054A6" stroke-dasharray="18 20" stroke-dashoffset="19" stroke-linecap="round" stroke-width="4" d="M211 218h18" style="animation:cipyAAyH_draw 2000ms ease-in-out 190ms forwards"/>
    <path fill="#fff" stroke="#ED1C24" stroke-width="3" d="M150.5 154a7.5 7.5 0 1115 0 7.5 7.5 0 11-15 0" style="animation:cipyAAyH_draw 2000ms ease-in-out 200ms forwards" stroke-dasharray="48 50" stroke-dashoffset="49"/>
    <path stroke="#0054A6" stroke-dasharray="18 20" stroke-dashoffset="19" stroke-linecap="round" stroke-width="4" d="M149 154h18" style="animation:cipyAAyH_draw 2000ms ease-in-out 209ms forwards"/>
    <path fill="#0054A6" d="M146 211h56a1 1 0 011 1v12a1 1 0 01-1 1h-56a1 1 0 01-1-1v-12a1 1 0 011-1" style="animation:cipyAAyH_draw 2000ms ease-in-out 218ms forwards"/>
    <path fill="#fff" d="M154.6 221h-1.3v-.2-.1l-.1-.4-.2-.7-1.8-5.1a12.4 12.4 0 001.3 0l1.5 4.4 1.3-4.4a11.1 11.1 0 001.4 0l-1.8 5.1-.2.6v.8zm3.5 0h-1.3l2.1-6 .1-.4v-.1a14.3 14.3 0 001.4 0l.2.6 2.1 6h-.2l-.3-.1H161.3l-.5-1.4h-2.2l-.5 1.4zm2.3-2.6l-.7-2.2-.7 2.2h1.4zm6.8-4l.5.1h.9v4c0 .8-.3 1.4-.8 2-.4.4-1 .6-1.7.6-.8 0-1.4-.2-1.8-.6-.6-.4-.8-1-.8-1.9v-4.1a12.1 12.1 0 001.3 0v4.2c0 .4.2.7.4 1 .2.1.5.3.9.3.5 0 .9-.3 1-.9l.1-.7v-4zm6 .6v-.3-.2h1.8a4 4 0 01-.3.3l-.5.7-1.1 2.1 1 2 .2.4.6 1h-1.6l-.1-.5-1-1.8a172.8 172.8 0 00-1 2.3h-1.7l.4-.5.6-1 1-1.8-1.3-2.6a3 3 0 00-.4-.6h1.6v.1l.1.4.8 1.6.9-1.6zm4.1 6h-1.2v-6.5H177.3v2.6h2.3v-2.6a12.5 12.5 0 001.3 0v6.5h-1.3v-2.8h-2.3v2.8zm5.9 0h-1.4l2.1-6 .2-.4v-.1a14.3 14.3 0 001.3 0l.2.6 2.1 6h-.2l-.2-.1h-1l-.5-1.4h-2.2l-.4 1.4zm2.2-2.6l-.7-2.2-.7 2.2h1.4zm4 2.6h-.9v-6.5h1.4v5.3h1.7v1.2h-2.1zm4.3 0h-1v-6.5h1.4v5.3h1.7v1.2h-2.1z" style="animation:cipyAAyH_draw 2000ms ease-in-out 227ms forwards"/>
    <path fill="#0054A6" d="M93 147h47a1 1 0 011 1v12a1 1 0 01-1 1H93a1 1 0 01-1-1v-12a1 1 0 011-1" style="animation:cipyAAyH_draw 2000ms ease-in-out 236ms forwards"/>
    <path fill="#fff" d="M98.7 150.5l1.4-.1c1 0 1.6.2 2 .6.5.4.7 1 .7 1.9 0 .7-.2 1.3-.7 1.7a2.7 2.7 0 01-2.1.6v1.8h-1.3v-6.5zm1.6 1h-.3v2.6h.4a1.3 1.3 0 00.9-.3c.2-.2.3-.6.3-1 0-.8-.4-1.2-1.3-1.2zm3.7-1h1.4v6.5H104v-6.5zm4.5 6.5a9 9 0 00-.9 0h-.4v-6.5a11 11 0 001.2 0l1.7 2.8 1.6-2.8h1.3v6.5h-.4a9 9 0 00-.9 0v-4.3l-1.6 2.8-1.6-2.6v4.1zm7.2 0h-1v-6.5h1.4v5.3h1.7v1.2h-2.1zm3.3-6.5h1.4v6.5H119v-6.5zm6.1-.1c.6 0 1.2 0 1.6.3v1.5c-.2-.3-.6-.5-1.2-.6a4 4 0 00-.6 0 2 2 0 00-.8.2c-.3 0-.5.2-.6.4-.3.3-.5.8-.5 1.5 0 .8.2 1.3.6 1.7.3.3.8.5 1.3.5.6 0 1.1-.2 1.5-.4l.4-.4v1.4a3 3 0 01-2 .6 3 3 0 01-2.3-1c-.6-.5-.9-1.3-.9-2.3 0-1 .3-1.9 1-2.5.5-.6 1.4-1 2.5-1zm3.5 5.8a3.1 3.1 0 01-1-2.3c0-.5 0-1 .2-1.3l.7-1.2a3.3 3.3 0 012.5-1c1 0 1.7.3 2.3.8.6.6 1 1.5 1 2.5a3.3 3.3 0 01-2.5 3.3 4 4 0 01-1 .1c-.4 0-.8 0-1.2-.2l-1-.7zm.4-2.4l.1.9.4.6c.4.4.9.6 1.5.6s1-.2 1.4-.6c.3-.3.5-.9.5-1.5s-.2-1.1-.5-1.6c-.4-.4-.9-.6-1.5-.6s-1 .2-1.4.7c-.4.4-.5.9-.5 1.5z" style="animation:cipyAAyH_draw 2000ms ease-in-out 245ms forwards"/>
    <path fill="#0054A6" d="M342 353h34a1 1 0 011 1v12a1 1 0 01-1 1h-34a1 1 0 01-1-1v-12a1 1 0 011-1" style="animation:cipyAAyH_draw 2000ms ease-in-out 254ms forwards"/>
    <path fill="#fff" d="M348.4 362.2a3.1 3.1 0 01-1-2.3c0-.5.1-1 .3-1.3.1-.5.3-.8.6-1.2a3.3 3.3 0 012.5-1c1 0 1.7.3 2.3.8.7.6 1 1.5 1 2.5a3.3 3.3 0 01-2.5 3.3 4 4 0 01-1 .1c-.4 0-.8 0-1.2-.2l-1-.7zm.4-2.4l.1.9.4.6c.4.4 1 .6 1.5.6.6 0 1-.2 1.4-.5.3-.4.5-1 .5-1.6 0-.6-.2-1.1-.5-1.6-.4-.4-.8-.6-1.5-.6-.6 0-1 .2-1.4.7-.4.4-.5.9-.5 1.5zm9.3 3.2h-1.3v-.2-.1l-.1-.4-.2-.7-1.8-5.1a12.4 12.4 0 001.3 0l1.5 4.4 1.3-4.4a11.1 11.1 0 001.4 0l-1.8 5.1-.1.6-.2.6v.2zm3.5 0h-1.3l2.1-6 .1-.4v-.1a14.3 14.3 0 001.4 0l.2.6 2.1 6h-.2l-.3-.1H364.8l-.5-1.4h-2.2l-.5 1.4zm2.3-2.6l-.7-2.2-.7 2.2h1.4zm4 2.6h-.9v-6.5h1.4v5.3h1.7v1.2H368z" style="animation:cipyAAyH_draw 2000ms ease-in-out 263ms forwards"/>
    <path fill="#5D1D07" d="M127 282h3v36h-3z" style="animation:cipyAAyH_draw 2000ms ease-in-out 272ms forwards"/>
    <path fill="#5D1D07" d="M130 282h18a2 2 0 012 2v10a2 2 0 01-2 2h-18v-14z" style="animation:cipyAAyH_draw 2000ms ease-in-out 281ms forwards"/>
    <path fill="#D80027" d="M130 294h20v2h-20z" style="animation:cipyAAyH_draw 2000ms ease-in-out 290ms forwards"/>
    <path fill="#F0F0F0" d="M130 292h20v2h-20z" style="animation:cipyAAyH_draw 2000ms ease-in-out 300ms forwards"/>
    <path fill="#D80027" d="M130 290h20v2h-20z" style="animation:cipyAAyH_draw 2000ms ease-in-out 309ms forwards"/>
    <path fill="#F0F0F0" d="M130 288h20v2h-20z" style="animation:cipyAAyH_draw 2000ms ease-in-out 318ms forwards"/>
    <path fill="#D80027" d="M130 286h20v2h-20z" style="animation:cipyAAyH_draw 2000ms ease-in-out 327ms forwards"/>
    <path fill="#F0F0F0" d="M130 284h20v2h-20z" style="animation:cipyAAyH_draw 2000ms ease-in-out 336ms forwards"/>
    <path fill="#D80027" d="M130 282h20v2h-20z" style="animation:cipyAAyH_draw 2000ms ease-in-out 345ms forwards"/>
    <path fill="#0455BA" d="M130 282h10v8h-10z" style="animation:cipyAAyH_draw 2000ms ease-in-out 354ms forwards"/>
    <path fill="#EFF3F2" d="M138 287l.2.7h.8l-.6.4.2.7-.6-.4-.6.4.2-.7-.6-.4h.8l.2-.7z" style="animation:cipyAAyH_draw 2000ms ease-in-out 363ms forwards"/>
    <path fill="#EFF3F2" d="M138 285l.2.7h.8l-.6.4.2.7-.6-.4-.6.4.2-.7-.6-.4h.8l.2-.7z" style="animation:cipyAAyH_draw 2000ms ease-in-out 372ms forwards"/>
    <path fill="#EFF3F2" d="M138 283l.2.7h.8l-.6.4.2.7-.6-.4-.6.4.2-.7-.6-.4h.8l.2-.7z" style="animation:cipyAAyH_draw 2000ms ease-in-out 381ms forwards"/>
    <path fill="#EFF3F2" d="M135 287l.2.7h.8l-.6.4.2.7-.6-.4-.6.4.2-.7-.6-.4h.8l.2-.7z" style="animation:cipyAAyH_draw 2000ms ease-in-out 390ms forwards"/>
    <path fill="#EFF3F2" d="M135 285l.2.7h.8l-.6.4.2.7-.6-.4-.6.4.2-.7-.6-.4h.8l.2-.7z" style="animation:cipyAAyH_draw 2000ms ease-in-out 400ms forwards"/>
    <path fill="#EFF3F2" d="M135 283l.2.7h.8l-.6.4.2.7-.6-.4-.6.4.2-.7-.6-.4h.8l.2-.7z" style="animation:cipyAAyH_draw 2000ms ease-in-out 409ms forwards"/>
    <path fill="#EFF3F2" d="M132 287l.2.7h.8l-.6.4.2.7-.6-.4-.6.4.2-.7-.6-.4h.8l.2-.7z" style="animation:cipyAAyH_draw 2000ms ease-in-out 418ms forwards"/>
    <path fill="#EFF3F2" d="M132 285l.2.7h.8l-.6.4.2.7-.6-.4-.6.4.2-.7-.6-.4h.8l.2-.7z" style="animation:cipyAAyH_draw 2000ms ease-in-out 427ms forwards"/>
    <path fill="#EFF3F2" d="M132 283l.2.7h.8l-.6.4.2.7-.6-.4-.6.4.2-.7-.6-.4h.8l.2-.7z" style="animation:cipyAAyH_draw 2000ms ease-in-out 436ms forwards"/>
    <path fill="#B2330C" d="M116 278l8 8H92l-8-8h32z" style="animation:cipyAAyH_draw 2000ms ease-in-out 445ms forwards"/>
    <path fill="#F1997C" fill-rule="evenodd" d="M115.2 280H88.8l4 4h26.4l-4-4zm.8-2H84l8 8h32l-8-8z" clip-rule="evenodd" style="animation:cipyAAyH_draw 2000ms ease-in-out 454ms forwards"/>
    <path fill="#87290A" d="M92 286v32l-8-8v-32l8 8z" style="animation:cipyAAyH_draw 2000ms ease-in-out 463ms forwards"/>
    <path fill="#B2330C" d="M92 286h32v32H92z" style="animation:cipyAAyH_draw 2000ms ease-in-out 472ms forwards"/>
    <path fill="#F1997C" d="M95 293a2 3 0 114 0 2 3 0 11-4 0" style="animation:cipyAAyH_draw 2000ms ease-in-out 481ms forwards"/>
    <path fill="#F1997C" d="M102 293a2 3 0 114 0 2 3 0 11-4 0" style="animation:cipyAAyH_draw 2000ms ease-in-out 490ms forwards"/>
    <path fill="#F1997C" d="M109 293a2 3 0 114 0 2 3 0 11-4 0" style="animation:cipyAAyH_draw 2000ms ease-in-out 500ms forwards"/>
    <path fill="#F1997C" d="M116 293a2 3 0 114 0 2 3 0 11-4 0" style="animation:cipyAAyH_draw 2000ms ease-in-out 509ms forwards"/>
    <path fill="#F1997C" d="M95 302a2 3 0 114 0 2 3 0 11-4 0" style="animation:cipyAAyH_draw 2000ms ease-in-out 518ms forwards"/>
    <path fill="#F1997C" d="M102 302a2 3 0 114 0 2 3 0 11-4 0" style="animation:cipyAAyH_draw 2000ms ease-in-out 527ms forwards"/>
    <path fill="#F1997C" d="M109 302a2 3 0 114 0 2 3 0 11-4 0" style="animation:cipyAAyH_draw 2000ms ease-in-out 536ms forwards"/>
    <path fill="#F1997C" d="M116 302a2 3 0 114 0 2 3 0 11-4 0" style="animation:cipyAAyH_draw 2000ms ease-in-out 545ms forwards"/>
    <path fill="#F1997C" d="M95 311a2 3 0 114 0 2 3 0 11-4 0" style="animation:cipyAAyH_draw 2000ms ease-in-out 554ms forwards"/>
    <path fill="#F1997C" d="M102 311a2 3 0 114 0 2 3 0 11-4 0" style="animation:cipyAAyH_draw 2000ms ease-in-out 563ms forwards"/>
    <path fill="#F1997C" d="M109 311a2 3 0 114 0 2 3 0 11-4 0" style="animation:cipyAAyH_draw 2000ms ease-in-out 572ms forwards"/>
    <path fill="#F1997C" d="M116 311a2 3 0 114 0 2 3 0 11-4 0" style="animation:cipyAAyH_draw 2000ms ease-in-out 581ms forwards"/>
    <path fill="#B2330C" d="M190 115h33v12h-33z" style="animation:cipyAAyH_draw 2000ms ease-in-out 590ms forwards"/>
    <path fill="#F1997C" d="M199.4 118v2l-1.5.1-.4 4.7h-2v-4.5H194V118h5.4zm7 6.6l-2.4.3-.3-1.1h-1l-.3 1-2.5-.2 2-6.5h2.7l1.9 6.5zm-2.8-2.3l-.4-1.7-.4 1.7h.8zm8.8-4.3v2l-1.5.1-.3 4.7h-2v-4.5H207V118h5.3zm6.2 0a174.4 174.4 0 000 1.8h-2.1v.7h1.4l-.1 1.5h-1.5v.8h2a118.6 118.6 0 01-.1 2.1l-4.2.1.1-7h4.5z" style="animation:cipyAAyH_draw 2000ms ease-in-out 600ms forwards"/>
    <path fill="#F1997C" d="M190 127h6v17h-6z" style="animation:cipyAAyH_draw 2000ms ease-in-out 609ms forwards"/>
    <path fill="#F1997C" d="M217 127h6v17h-6z" style="animation:cipyAAyH_draw 2000ms ease-in-out 618ms forwards"/>
    <path fill="#F1997C" d="M199 127h6v17h-6z" style="animation:cipyAAyH_draw 2000ms ease-in-out 627ms forwards"/>
    <path fill="#F1997C" d="M208 127h6v17h-6z" style="animation:cipyAAyH_draw 2000ms ease-in-out 636ms forwards"/>
    <path fill="#B2330C" d="M188 144h37v3h-37z" style="animation:cipyAAyH_draw 2000ms ease-in-out 645ms forwards"/>
    <path fill="#87290A" d="M185 150h42v-3h-42z" style="animation:cipyAAyH_draw 2000ms ease-in-out 654ms forwards"/>
    <path fill="#B2330C" d="M206.5 108l16.5 7h-33l16.5-7z" style="animation:cipyAAyH_draw 2000ms ease-in-out 663ms forwards"/>
    <path fill="#B2330C" d="M327 203h37v13h-37z" style="animation:cipyAAyH_draw 2000ms ease-in-out 672ms forwards"/>
    <path fill="#F1997C" d="M335.8 206a106.6 106.6 0 000 1.8h-2.2v.7h1.8v1.5h-1.8v3h-2.4l.1-7h4.5zm7.1 6.6l-2.4.3-.3-1.1H339l-.3 1-2.5-.2 2-6.5h2.7l1.9 6.5zm-2.9-2.3l-.4-1.7-.3 1.7h.7zm10-2v.7a2 2 0 01-.6 1l-.6.5 1.2 2-2.2.5-.7-2.1h-.7v2h-2.1a569 569 0 000-4.4v-1.1l.1-1.1a6.2 6.2 0 012-.4h.7l1.1.1 1 .5a2.3 2.3 0 01.8 1.8zm-2.2.1v-.3a.8.8 0 00-.5-.5 1 1 0 00-.3 0 1.3 1.3 0 00-.4 0v1.8h.4l.4-.2.3-.3.1-.5zm11.4-2.5l-.4 7.1-2.3.1v-3.7l-1 3h-.8l-.8-2.7v3.2h-2.2v-6.7l2.6-.1 1 3.2 1.3-3.4h2.6z" style="animation:cipyAAyH_draw 2000ms ease-in-out 681ms forwards"/>
    <path fill="#B2330C" d="M343 216h6l3 36h-6l-3-36z" style="animation:cipyAAyH_draw 2000ms ease-in-out 690ms forwards"/>
    <g filter="url(#filter0_d)">
      <path fill="#87290A" d="M325 243h3v9h-3z" style="animation:cipyAAyH_draw 2000ms ease-in-out 700ms forwards"/>
      <path fill="#87290A" d="M334 243h3v9h-3z" style="animation:cipyAAyH_draw 2000ms ease-in-out 709ms forwards"/>
      <path fill="#B2330C" d="M327 243h3v9h-3z" style="animation:cipyAAyH_draw 2000ms ease-in-out 718ms forwards"/>
      <path fill="#B2330C" d="M336 243h3v9h-3z" style="animation:cipyAAyH_draw 2000ms ease-in-out 727ms forwards"/>
      <path fill="#fff" d="M346 230c3 3 3 8.5-1.5 10-.5 4-2.5 6.5-7.5 5.5-3.5 3.5-7 3-10 0-4.5 1-6 0-7.5-4-4-1.5-5-1.5-4-6.5-2.5-2-3-3.5 1-7-.5-4.5 1.5-6.5 6.5-6.5 2.5-3.5 5-3.5 8.5-1 3.5-2 6-3 9.5 2 4 0 5.5 2.5 5 7.5z" style="animation:cipyAAyH_draw 2000ms ease-in-out 736ms forwards"/>
      <path fill="#87290A" d="M318 223.5c-2 .1-14.5 6-11.5 9s6.8-4.4 12-3.5c7.4 1.3 10 6.5 12 2.5s-10.5-8.1-12.5-8z" style="animation:cipyAAyH_draw 2000ms ease-in-out 745ms forwards"/>
      <path fill="#F1997C" d="M311 232a7.5 8 0 1115 0 7.5 8 0 11-15 0" style="animation:cipyAAyH_draw 2000ms ease-in-out 754ms forwards"/>
      <path fill="#fff" d="M322.5 222c-1-3.5-4.5-5.5-7.5 0-8.5-4-6 11.5 1.5 5 1 1.5 3 2.5 4.5 0 7.5 6.5 10.5-8 1.5-5z" style="animation:cipyAAyH_draw 2000ms ease-in-out 763ms forwards"/>
      <path fill="#87290A" d="M315 232a1 1 0 112 0 1 1 0 11-2 0" style="animation:cipyAAyH_draw 2000ms ease-in-out 772ms forwards"/>
      <path fill="#87290A" d="M319 232a1 1 0 112 0 1 1 0 11-2 0" style="animation:cipyAAyH_draw 2000ms ease-in-out 781ms forwards"/>
    </g>
    <path fill="#B2330C" d="M256.4 54V37c0-.3 0-.6-.2-1l-2-4a2 2 0 01-.3-1v-2c0-.3 0-.6-.2-1l-4.7-9.4a2 2 0 00-3.6 0l-4.7 9.5a2 2 0 00-.2.9v2c0 .3 0 .6-.2 1l-2 4a2 2 0 00-.3 1v17c0 .6.4 1 1 1 .5 0 1 .4 1 1v27c0 1.1.9 2 2 2h10.4a2 2 0 002-2V56c0-.6.5-1 1-1 .6 0 1-.4 1-1z" style="animation:cipyAAyH_draw 2000ms ease-in-out 790ms forwards"/>
    <path fill="#F1997C" d="M246.5 60.2c0-.4.3-.7.7-.7.4 0 .8.3.8.7V85h-1.5V60.2z" style="animation:cipyAAyH_draw 2000ms ease-in-out 800ms forwards"/>
    <path fill="#F1997C" d="M242.5 60.2c0-.4.3-.7.7-.7.4 0 .8.3.8.7V85h-1.5V60.2z" style="animation:cipyAAyH_draw 2000ms ease-in-out 809ms forwards"/>
    <path fill="#F1997C" d="M250.4 60.2c0-.4.4-.7.8-.7s.7.3.7.7V85h-1.5V60.2z" style="animation:cipyAAyH_draw 2000ms ease-in-out 818ms forwards"/>
    <path fill="#F1997C" d="M241.5 45.5a5.7 5.8 0 1111.4 0 5.7 5.8 0 11-11.4 0" style="animation:cipyAAyH_draw 2000ms ease-in-out 827ms forwards"/>
    <path fill="#87290A" d="M246.5 42.3h1.5v4.5h-1.5v-4.5" style="animation:cipyAAyH_draw 2000ms ease-in-out 836ms forwards"/>
    <path fill="#87290A" d="M250 45.3v1.5h-3.5v-1.5h3.4" style="animation:cipyAAyH_draw 2000ms ease-in-out 845ms forwards"/>
    <g filter="url(#filter1_d)">
      <path fill="#fff" d="M271 161a30 30 0 1160 0 30 30 0 11-60 0" style="animation:cipyAAyH_draw 2000ms ease-in-out 854ms forwards"/>
    </g>
    <mask id="mask0" width="68" height="61" x="263" y="131" maskUnits="userSpaceOnUse" mask-type="alpha">
      <path fill="#C4C4C4" fill-rule="evenodd" stroke-dasharray="254 256" stroke-dashoffset="255" d="M301 131h-37.3v58l22.2-2a29.8 29.8 0 0015.1 4h1.3c5.5.2 16 .4 18-2.7 3.4-5.2 10.7.7 10.7.7v-58h-30z" clip-rule="evenodd" style="animation:cipyAAyH_draw 2000ms ease-in-out 863ms forwards"/>
    </mask>
    <g mask="url(#mask0)">
      <path fill="#E7714A" d="M286.9 173.9l6.1-1.8h14.3s7.4.3 10 5c-3 1-3.7 2-6.3 3.8 0 6.3.8 19.2.8 19.2l-25-1 2.4-17.7c-2-2.4-2.3-7.5-2.3-7.5z" style="animation:cipyAAyH_draw 2000ms ease-in-out 872ms forwards"/>
      <path fill="#F7C9B9" d="M319.8 189c2.8-2-2.4-12-2.4-12-2.3-.1-6.4 3.6-6.4 3.6s1.3 1.5 1.7 3.7c-1.9 1.3-12.7 2.5-13.4 6.8 5.2 0 16.5.7 20.5-2.2z" style="animation:cipyAAyH_draw 2000ms ease-in-out 881ms forwards"/>
      <path fill="#F7C9B9" d="M292.9 172c-3.1-2.7-4.9-5.6-4.7-9.4.2-6 1.5-12 1.5-12l11.4-10.3 12.6 9.2s.6 5.4 0 10.1c.3 3.9 0 .8-1 6-.8 4-1.6 4.6-3.8 6.7a11 11 0 01-7.8 3.3c-3.5.2-5.6-1.3-8.2-3.6z" style="animation:cipyAAyH_draw 2000ms ease-in-out 890ms forwards"/>
      <path fill="#E7714A" d="M295.6 167.5c0 6.4 11.5 6 11.5 0 0-2.4-2.8-.4-5.9-.4-2.9 0-5.6-2-5.6.4z" style="animation:cipyAAyH_draw 2000ms ease-in-out 900ms forwards"/>
      <path fill="#F7C9B9" d="M276.6 177c4 2.3 12.6 4.3 12.6 4.3l-2.2-7.4-7.7-2.9c-.7-.2-5.2-5.8-6.2-9.5 1-1 .8-2.1 1.4-3 1-1 1.6-2 .7-2.5-.7-.5-1.9.9-2.6 1.7-.2-1-1.5-6.5-2.4-6.3-.8.1 0 3.7-.4 3.8-.3 0-2-3.7-2.9-3.5-.4.1.4 1.9 1 3.1l.3 1.3c-.5.2-2.6-3.1-3.3-2.6-.5.3.6 1.9 1.1 2.9l.3.7c-.2.2-2-1.4-2.3-1.1-.5.5 2 4 4.8 6.3 2 1.7 3.9 12.4 7.8 14.7z" style="animation:cipyAAyH_draw 2000ms ease-in-out 909ms forwards"/>
      <path fill="#5D1D07" d="M322.3 162.7c2.4.5 3.5 0 7.6 0a19.7 19.7 0 01-21 9.5c3.8-2.6 3.4-7 5.4-12-2.4-5.1-5.7-7.5-7.5-14.2-3.7 2.2-7.1 6-16 6-1 3 1.1 5 .5 8.2-.5 3-5.9 5.2 1.7 11.9-7 2-17.7-.8-16.2-14 2.1 1 2.8 2.1 5.3 3 0-3-3.4-3.8 1-10.2-2.6-2-4.7-3.5-5.3-7 15.9 7 12.4-14.5 30.2-5.6 15-5.1 6.9 16.5 20.9 17.4-1.5 3.4-3 4.5-6.6 7z" style="animation:cipyAAyH_draw 2000ms ease-in-out 918ms forwards"/>
      <path fill="#5D1D07" d="M304.6 151.6h-.1l-.3-.1.1-.3h.1a3.2 3.2 0 011.2-.2c.4 0 .8.1 1.1.4.3.2.6.6.8 1.2 0 .1 0 .3-.2.3-.1 0-.3 0-.3-.2-.1-.5-.4-.8-.6-1l-.8-.2a2.6 2.6 0 00-1 0z" style="animation:cipyAAyH_draw 2000ms ease-in-out 927ms forwards"/>
      <path fill="#5D1D07" d="M297.2 151.8l.4-.1c0-.2 0-.3-.2-.4a3.2 3.2 0 00-1.3-.1 2 2 0 00-1 .3c-.4.3-.7.7-.8 1.3l.1.3c.2 0 .3 0 .3-.2l.6-1 .8-.3a2.6 2.6 0 011 .2z" style="animation:cipyAAyH_draw 2000ms ease-in-out 936ms forwards"/>
      <path fill="#5D1D07" d="M294.8 160.3c-.2.2-.5.2-.7 0a.5.5 0 010-.6v-.1a5.3 5.3 0 011.6-1.1c.5-.2 1-.4 1.7-.2a3 3 0 011.7 1.5c0 .2 0 .5-.2.6-.3.2-.6 0-.7-.2-.4-.6-.8-.9-1-1-.4 0-.8 0-1.1.2a3.7 3.7 0 00-1.2.8l-.1.1z" style="animation:cipyAAyH_draw 2000ms ease-in-out 945ms forwards"/>
      <path fill="#5D1D07" d="M303.9 160.3c-.2.2-.5.2-.7 0a.5.5 0 010-.7v-.1a5.6 5.6 0 011.6-1c.5-.2 1-.4 1.7-.2.6.2 1.2.6 1.6 1.4.2.2.1.5-.1.6-.3.2-.6.1-.7-.1-.4-.6-.8-.9-1-1-.4 0-.8 0-1.1.2a3.8 3.8 0 00-1.2.8h-.1z" style="animation:cipyAAyH_draw 2000ms ease-in-out 954ms forwards"/>
      <path fill="#5D1D07" d="M300.1 164.5a.3.3 0 01.1-.5l.2-.1.6-.2c.5 0 1 .2 1.6.9.1.1 0 .3 0 .4h-.5c-.4-.6-.8-.7-1-.6a1 1 0 00-.5.1h-.5z" style="animation:cipyAAyH_draw 2000ms ease-in-out 963ms forwards"/>
      <path fill="#F7C9B9" d="M312.7 165.6c3.6 3.5 7-10 1-6l-1 6z" style="animation:cipyAAyH_draw 2000ms ease-in-out 972ms forwards"/>
      <path fill="url(#paint0_radial)" d="M289.9 165a3.3 3.3 0 116.6 0 3.3 3.3 0 11-6.6 0" style="animation:cipyAAyH_draw 2000ms ease-in-out 981ms forwards"/>
      <path fill="url(#paint1_radial)" d="M305.8 163.6a3.7 3.6 0 117.3 0 3.7 3.6 0 11-7.3 0" style="animation:cipyAAyH_draw 2000ms ease-in-out 990ms forwards"/>
    </g>
  </g>
  <defs>
    <radialGradient id="paint0_radial" cx="0" cy="0" r="1" gradientTransform="matrix(0 3.30292 -3.32624 0 293.2 165)" gradientUnits="userSpaceOnUse">
      <stop stop-color="#E7714A" stop-opacity=".3"/>
      <stop offset="1" stop-color="#F24685" stop-opacity="0"/>
    </radialGradient>
    <radialGradient id="paint1_radial" cx="0" cy="0" r="1" gradientTransform="matrix(0 3.62515 -3.65075 0 309.4 163.6)" gradientUnits="userSpaceOnUse">
      <stop stop-color="#E7714A" stop-opacity=".3"/>
      <stop offset="1" stop-color="#F24685" stop-opacity="0"/>
    </radialGradient>
    <filter id="filter0_d" width="50.1" height="41.4" x="302" y="214.6" color-interpolation-filters="sRGB" filterUnits="userSpaceOnUse">
      <feFlood flood-opacity="0" result="BackgroundImageFix"/>
      <feColorMatrix in="SourceAlpha" values="0 0 0 0 0 0 0 0 0 0 0 0 0 0 0 0 0 0 127 0"/>
      <feOffset/>
      <feGaussianBlur stdDeviation="2"/>
      <feColorMatrix values="0 0 0 0 0 0 0 0 0 0 0 0 0 0 0 0 0 0 0.25 0"/>
      <feBlend in2="BackgroundImageFix" result="effect1_dropShadow"/>
      <feBlend in="SourceGraphic" in2="effect1_dropShadow" result="shape"/>
    </filter>
    <filter id="filter1_d" width="68" height="68" x="267" y="127" color-interpolation-filters="sRGB" filterUnits="userSpaceOnUse">
      <feFlood flood-opacity="0" result="BackgroundImageFix"/>
      <feColorMatrix in="SourceAlpha" values="0 0 0 0 0 0 0 0 0 0 0 0 0 0 0 0 0 0 127 0"/>
      <feOffset/>
      <feGaussianBlur stdDeviation="2"/>
      <feColorMatrix values="0 0 0 0 0 0 0 0 0 0 0 0 0 0 0 0 0 0 0.25 0"/>
      <feBlend in2="BackgroundImageFix" result="effect1_dropShadow"/>
      <feBlend in="SourceGraphic" in2="effect1_dropShadow" result="shape"/>
    </filter>
    <clipPath id="clip0">
      <path fill="#fff" d="M0 0h500v400H0z" style="animation:cipyAAyH_draw 2000ms ease-in-out 1000ms forwards" stroke-dasharray="1800 1802" stroke-dashoffset="1801"/>
    </clipPath>
  </defs>
  <style data-made-with="vivus-instant">
    @keyframes cipyAAyH_draw{to{stroke-dashoffset:0}}@keyframes cipyAAyH_fade{0%,94.44444444444444%{stroke-opacity:1}to{stroke-opacity:0}}
  </style>
</svg>