<svg width="24" height="24" viewBox="0 0 24 24" fill="none" xmlns="http://www.w3.org/2000/svg">
<path d="M18.3281 22.5C17.4131 22.5 16.1278 22.1691 14.2031 21.0937C11.8626 19.7812 10.0523 18.5695 7.72452 16.2478C5.48015 14.0048 4.38796 12.5526 2.85936 9.77109C1.13249 6.63046 1.42686 4.98421 1.75593 4.28062C2.1478 3.43968 2.72624 2.93671 3.4739 2.43749C3.89856 2.15926 4.34796 1.92075 4.8164 1.72499C4.86327 1.70484 4.90687 1.68562 4.94577 1.66827C5.1778 1.56374 5.52937 1.40577 5.97468 1.57452C6.27187 1.68609 6.53718 1.91437 6.95249 2.32452C7.80421 3.16452 8.96811 5.0353 9.39749 5.95405C9.68577 6.57327 9.87655 6.98202 9.87702 7.44046C9.87702 7.97718 9.60702 8.39109 9.27937 8.8378C9.21796 8.92171 9.15702 9.00187 9.09796 9.07968C8.74124 9.54843 8.66296 9.6839 8.71452 9.92577C8.81905 10.4119 9.59858 11.8589 10.8797 13.1372C12.1608 14.4155 13.5661 15.1458 14.0541 15.2498C14.3062 15.3037 14.4445 15.2222 14.9283 14.8528C14.9976 14.7998 15.0689 14.745 15.1434 14.6901C15.6431 14.3184 16.0378 14.0555 16.5619 14.0555H16.5647C17.0208 14.0555 17.4112 14.2533 18.0581 14.5795C18.9019 15.0051 20.8289 16.1541 21.6741 17.0067C22.0851 17.4211 22.3144 17.6855 22.4264 17.9822C22.5951 18.4289 22.4362 18.7791 22.3326 19.0134C22.3153 19.0523 22.2961 19.095 22.2759 19.1423C22.0786 19.6099 21.8387 20.0584 21.5592 20.482C21.0609 21.2273 20.5561 21.8044 19.7133 22.1967C19.2805 22.4014 18.8068 22.5051 18.3281 22.5Z" fill="black"/>
</svg>
