<svg width="24" height="24" viewBox="0 0 24 24" fill="none" xmlns="http://www.w3.org/2000/svg">
<path d="M18.4688 22.5C18.3109 22.5006 18.1569 22.4514 18.0286 22.3594L12 17.9887L5.97142 22.3594C5.84262 22.4528 5.68745 22.5028 5.52834 22.5022C5.36924 22.5017 5.21444 22.4505 5.08632 22.3561C4.95821 22.2618 4.86342 22.1291 4.81566 21.9774C4.7679 21.8256 4.76964 21.6626 4.82064 21.5119L7.17189 14.5476L1.07814 10.3687C0.946143 10.2783 0.846521 10.1481 0.793827 9.99699C0.741134 9.84593 0.73813 9.68197 0.785256 9.52907C0.832381 9.37618 0.927165 9.24236 1.05576 9.14717C1.18435 9.05198 1.34002 9.0004 1.50001 8.99998H9.01782L11.2866 2.01795C11.3354 1.86721 11.4308 1.73583 11.559 1.64264C11.6872 1.54946 11.8415 1.49927 12 1.49927C12.1585 1.49927 12.3129 1.54946 12.441 1.64264C12.5692 1.73583 12.6646 1.86721 12.7134 2.01795L14.9822 9.00233H22.5C22.6602 9.00225 22.8162 9.05346 22.9452 9.14847C23.0742 9.24348 23.1693 9.37729 23.2168 9.5303C23.2642 9.68331 23.2614 9.84749 23.2087 9.99878C23.1561 10.1501 23.0564 10.2805 22.9242 10.3711L16.8281 14.5476L19.178 21.51C19.216 21.6227 19.2268 21.7429 19.2092 21.8605C19.1917 21.9782 19.1464 22.09 19.0771 22.1868C19.0078 22.2835 18.9165 22.3623 18.8107 22.4168C18.705 22.4713 18.5877 22.4998 18.4688 22.5Z" fill="black"/>
</svg>
