<svg width="24" height="24" viewBox="0 0 24 24" fill="none" xmlns="http://www.w3.org/2000/svg">
<path d="M23.25 5.13276C22.406 5.49949 21.513 5.7411 20.5992 5.84995C21.5595 5.28762 22.2817 4.39427 22.6303 3.33745C21.7224 3.86835 20.7307 4.24086 19.6978 4.43901C19.2629 3.98316 18.7397 3.62053 18.1603 3.37314C17.5808 3.12575 16.9571 2.99878 16.327 2.99995C13.7761 2.99995 11.7117 5.03432 11.7117 7.54213C11.7099 7.89096 11.7499 8.23875 11.8308 8.57807C10.0016 8.49232 8.2104 8.02569 6.57187 7.20804C4.93333 6.39038 3.48351 5.23971 2.31516 3.82963C1.90527 4.52063 1.6885 5.30903 1.6875 6.11245C1.6875 7.68745 2.50922 9.07963 3.75 9.89526C3.01487 9.87781 2.29481 9.68324 1.65094 9.32807V9.38432C1.65094 11.5874 3.24469 13.4203 5.35406 13.8374C4.9574 13.9432 4.54864 13.9968 4.13812 13.9968C3.84683 13.9973 3.5562 13.9691 3.27047 13.9124C3.85687 15.7171 5.56359 17.0296 7.58531 17.0671C5.94252 18.3332 3.9256 19.0175 1.85156 19.0124C1.48341 19.0119 1.11561 18.99 0.75 18.9468C2.85993 20.2941 5.31255 21.0068 7.81594 20.9999C16.3172 20.9999 20.9616 14.0765 20.9616 8.07182C20.9616 7.87495 20.9564 7.67807 20.947 7.48588C21.8485 6.84466 22.6283 6.04781 23.25 5.13276Z" fill="black"/>
</svg>
