<?xml version="1.0" standalone="no"?>
<!DOCTYPE svg PUBLIC "-//W3C//DTD SVG 20010904//EN"
 "http://www.w3.org/TR/2001/REC-SVG-20010904/DTD/svg10.dtd">
<svg version="1.0" xmlns="http://www.w3.org/2000/svg"
 width="700.000000pt" height="700.000000pt" viewBox="0 0 700.000000 700.000000"
 preserveAspectRatio="xMidYMid meet">
<metadata>
Created by potrace 1.14, written by Peter Selinger 2001-2017
</metadata>
<g transform="translate(0.000000,700.000000) scale(0.100000,-0.100000)"
fill="#000000" stroke="none">
<path d="M3595 6844 c-376 -27 -682 -159 -942 -407 -135 -129 -205 -218 -305
-385 -382 -641 -543 -1236 -508 -1885 15 -259 55 -467 139 -715 25 -74 35
-115 27 -117 -6 -2 -54 -15 -106 -30 -140 -38 -219 -70 -370 -147 -294 -150
-555 -380 -712 -629 -255 -404 -187 -962 180 -1478 79 -112 261 -304 385 -408
266 -222 594 -385 932 -464 115 -27 405 -37 556 -20 137 16 463 68 514 82 123
33 333 142 463 238 162 120 204 168 329 379 64 106 122 210 129 230 18 55 52
273 60 388 l6 102 65 16 c61 15 115 37 368 149 55 24 123 50 150 57 28 7 93
35 145 62 500 263 875 740 1073 1364 119 375 172 831 148 1263 -13 226 -38
365 -112 617 -113 388 -261 657 -484 879 -257 257 -845 585 -1326 740 -268 86
-592 134 -804 119z"/>
</g>
</svg>
