<svg xmlns="http://www.w3.org/2000/svg" fill="none" viewBox="0 0 429 235" width="429" height="235">
  <path fill="#B3ABAB" d="M288.61 175.26h33.52l-4.36-54.52-26.07.08-.94 16.54-2.15 37.9z"/>
  <path fill="#fff" d="M291.7 120.82l26.07-.08 1.38 17.26 5.2-9.4-5.15-10-14.3-4.24-14.4 4.32-5.1 9.82 5.41 7.97.89-15.65zM303.98 139.72h-9.9v-1.46h9.9v1.46zM316 139.72h-9.9v-1.46h9.9v1.46z"/>
  <path fill="#fff" d="M315.45 136.96h-9.35v-1.46h9.35v1.46zM303.7 136.96h-9.32v-1.46h9.32v1.46zM303.7 134.3h-9.09v-1.46h9.1v1.46zM315.32 134.3h-9.1v-1.46h9.1v1.46zM315.19 131.63h-8.96v-1.46h8.96v1.46zM303.64 131.63h-8.96v-1.46h8.96v1.46zM295.59 128.89l.56-.47.57-.24h.8v-.47l.33-.75.38-.43.47-.38.46-.2h.53l.28.25.24.23.28.38.24.33v.28l.23.57.24.05h.56l.33.04.33.2.33.13v.24l-3.58.12-3.58.12zM306.71 128.89l.57-.47.56-.24h.8v-.47l.33-.75.38-.43.47-.38.46-.2h.53l.29.25.23.23.28.38.24.33v.28l.24.57.23.05H312.89l.33.04.33.2.33.13v.24l-3.58.12-3.59.12zM298.23 172.58c0 .7-.28 1.27-.62 1.27-.33 0-.6-.57-.6-1.27v-27.63c0-.7.27-1.27.6-1.27.34 0 .62.57.62 1.27v27.63zM305.1 172.58c0 .7-.25 1.27-.56 1.27-.3 0-.56-.57-.56-1.27v-28.1c0-.7.25-1.27.56-1.27.31 0 .56.57.56 1.27v28.1zM313.03 172.58c0 .7-.3 1.27-.66 1.27-.37 0-.66-.57-.66-1.27v-28.1c0-.7.3-1.27.66-1.27.36 0 .66.57.66 1.27v28.1z"/>
  <path fill="#2F8CCB" d="M290.76 137.36l-5.97-8.9 5.19-10.47 1.18-.42 1.03-.33 1-.66.64-1.3.86-1.46 1-2.12.7-1.84 8.2-2.4 8 1.97.84 3.11.99 1.84.78 1.2 1.6 1 2.69.56 5.84 10.37v.9l-6.16 9.85-.06-.76 5.23-8.9-5.14-10-14.3-4.24-14.39 4.32-5.1 9.82 5.4 7.97-.05.9z"/>
  <path fill="#C8C4C4" d="M293.98 106.18l-1.55-2.83 3.25-6.57 9.13-3.18 8.9 2.68 3.68 6.86-1.56 3.04.97 9.83v.56l-1.6-.98-.78-1.2-1-1.84-.84-3.12-7.99-1.98-8.2 2.4-.71 1.85-.99 2.12-1 1.7.27-8.66.02-.68z"/>
  <path fill="#fff" d="M299.17 101.44v1.06l4-1.06v-1.27l-4 1.27zM303.18 101.94v.92l-4.01 1.34v-.85l4-1.41zM303.18 103.78v.99l-4.01 1.2v-.57l4-1.62zM303.18 105.55v1.31l-4.01 1.09v-1.09l4-1.31zM310.3 99.68v.5l-4.07-.86v-.56l4.06.92zM309.96 101.34v.6l-3.73-.92v-.57l3.73.89zM310.3 103.42v.78l-4.07-1.34v-.64l4.06 1.2zM310.3 105.26v.7l-4.07-1.09v-.67l4.06 1.06zM310.3 106.86v1.09l-4.07-1.2v-.78l4.06.9zM299.17 99.75v.99l4-1.28v-.7l-4 .99z"/>
  <path fill="#2F8CCB" d="M292.83 100.69l-1.04 2.54 2.2 3.63.01-.68-1.55-2.83 3.25-6.58 9.13-3.18 8.9 2.69 3.68 6.86-1.56 3.04.06.64 2.04-3.59-2.64-6.79-1-2.35-.89-2.93-.75-2.87-.85-3.4-.8-3.81-.57-2.6-.6-4.29-.39-3.34-1.13-10.75-.75-7.26-.25-3.63-.74-5.7.28-.72-.1-1.03-.07-.64.03-.56-.32-.53-.32-.67-.28-6.2C308 32 308.5 28 304.9 26.99v-.07l-.66-18.3-.67 18.3s.02.07 0 .07c-2.57.42-4.2 4.6-.61 6.33l-.28 6.05-.66 1.5-.24 2.36.24.38-.43 5.37-.99 11.41-.7 10.75-.52 4.38-.52 4.15-.57 3.68-.85 3.91-.66 2.92-1.27 3.87-2.68 6.64z"/>
  <path fill="#2F8CCB" d="M297.3 25.5l14.15-10.25v-.78L297.3 24.65v.85z"/>
  <path fill="#2F8CCB" d="M298.72 12.99v.85l10.47 13.08v-.43L298.72 13zM296.04 26.56v.51l1.27-.77v-2l-1.27.7v.6l.84-.47v.33l-.3.2v.26l.31-.2-.02.31-.83.53zM310.95 13.75l.34 1.92.57-.28v-1.52h.22v1.22l.54-.38.3-2.27-.46.25-.06.77-.17-.03-.02-.55-.53.34-.07 1h-.16l-.09-.8-.4.33z"/>
  <path fill="#2F8CCB" d="M298.72 14.06l.02-.22.2-2.2-.5-.24v.56l-.28-.07v-.88h-.57v1.52l.43.46.24-.46v.99l.46.54zM310.8 26.65l-1.08-.97-.17.22-.05.22.28.33.17.25-.25.3-.2-.08-.31-.43-.29.43.9 1.34.3.18.29-.29.1-.24v-.36l-.1-.48.32-.06.1-.36zM300.11 1.41V0h-1.39l.7 2.55 8.14 11.5v1.98l.76.7.58-2.67-.59-1.07h-.75l-1.5-1.98-.16-.46-.22-.65 1.13 1.1h.75V7.36l-.93-.9-.49-1.03-.48.07-.56.83-.25-2.17v-1.7l-.61-.75-.69.1-.42.75.42 1.13.4.84.29.76v.85l-.29.56.38.76-.1 1.15-4.12-6.62v-.57z"/>
  <path fill="#008BD2" d="M328.83 78.4c-11.66 18.17-17.4 35.71-14.91 57.75a76.44 76.44 0 005.27 18.4 79.63 79.63 0 0023.32 30.9c10.26 7.23 20.5 11.55 32.18 11.48 7.3 1.42 13.1-4.46 20.4-5.96 27.65-13.3 36.21-45.46 33.12-74.63-1.5-7.29-3.37-14.21-6.32-20.4-2.96-6.18-7-11.63-12.87-15.97-19.05-13.02-46.86-26-68.51-12.64a43.41 43.41 0 00-11.68 11.06z"/>
  <path fill="#FDC300" d="M318.08 151.8a50.63 50.63 0 00-26.93 15.54 32.56 32.56 0 00-5.87 8.61c-8.83 21.31 10.91 48.66 36.73 56.27a38.98 38.98 0 0012.02 1.84c6.22 0 12.14-1.3 18.6-2.27a43.01 43.01 0 0017.98-11.07l6.17-10.33c1.2-4.3 1.78-8.78 1.77-13.34a13.1 13.1 0 01-3.86-.12h-.28c-11.56 0-21.72-4.3-31.9-11.49a79.67 79.67 0 01-24.43-33.63z"/>
  <path fill="#007443" d="M330.04 150.53c-4.14 0-8.13.44-11.96 1.28a79.65 79.65 0 0024.43 33.64c10.18 7.17 20.34 11.48 31.9 11.48h.28a12.06 12.06 0 003.86.12c-.03-8.16-1.97-16.6-5.62-24.76-4.22-5.64-7.77-12.42-16.85-16.28-8.98-3.73-17.77-5.48-26.04-5.48z"/>
  <path fill="#008BD2" d="M74.9 191.22c-1.64 0-3.14-.5-4.5-1.5-1.28-1.1-2.7-2.96-4.24-5.6a19 19 0 00-3-4.5 7.94 7.94 0 00-3.28-2.33c-.82-.46-2.32-.73-4.5-.82-2.1-.18-4.79-.27-8.06-.27H36.94c-1.91 0-3.55.09-4.92.27a8.1 8.1 0 00-3.55 1.1c-1 .54-2 1.4-3 2.59-1 1.18-2.1 2.77-3.28 4.78a25.6 25.6 0 01-3.83 4.78c-1.18 1-3.27 1.5-6.28 1.5H6.62a7.14 7.14 0 01-3.69-.82 3.95 3.95 0 01-1.64-2.05 6.67 6.67 0 01-.27-2.73c.1-1.1.32-2.14.68-3.14l28.14-75.93c1.9-5.28 5-7.92 9.28-7.92h9.56c1.91 0 3.69.5 5.33 1.5 1.73.91 3.14 2.87 4.23 5.87l29.5 78.12c.9 2.45.64 4.28-.82 5.46a8.85 8.85 0 01-5.46 1.64H74.9zm-24.03-56.54c-.82-3-1.78-5.05-2.87-6.14a4.92 4.92 0 00-3.69-1.78c-2.82 0-4.91 2.46-6.28 7.38l-5.19 17.75a7.28 7.28 0 00-.14 3.69c.37 1.18.91 2.27 1.64 3.27.73.91 1.6 1.69 2.6 2.33 1.09.54 2.27.81 3.55.81h7.1c3 0 5.32-1.09 6.96-3.27a7.88 7.88 0 001.23-7.38l-4.91-16.66zM115.06 184.39c0 .73-.14 1.5-.4 2.32-.28.82-.74 1.6-1.37 2.32a9.95 9.95 0 01-2.6 1.78c-1 .45-2.27.68-3.82.68-4.65 0-7.83-.59-9.56-1.77-1.64-1.28-2.46-3.42-2.46-6.42v-77.02c0-2.46.6-4.28 1.78-5.47a6.83 6.83 0 015.05-1.9h41.24c4.73 0 9.01.68 12.84 2.04a28.95 28.95 0 019.97 5.74 24.66 24.66 0 016.28 8.87 27.8 27.8 0 012.32 11.47c0 6.2-.96 11.38-2.87 15.57a25.5 25.5 0 01-8.33 10.25c-3.55 2.54-7.92 4.41-13.1 5.6a85.19 85.19 0 01-17.49 1.63c-4.28 0-7.6.27-9.97.82-2.27.46-4 1.28-5.19 2.46a8.55 8.55 0 00-2.05 4.78 78.83 78.83 0 00-.27 7.24v9.01zm12.3-71.83c-4.65 0-7.93 1.14-9.84 3.41-1.82 2.28-2.73 6.42-2.73 12.43v5.46c0 4.65 1.14 7.92 3.41 9.83 2.37 1.83 6.42 2.74 12.16 2.74 15.84 0 23.76-5.74 23.76-17.21 0-5.1-1.73-9.15-5.2-12.15-3.36-3-8.46-4.51-15.29-4.51h-6.28zM260.9 174.7c0 1.9-1 4.05-3.01 6.41a33.03 33.03 0 01-7.65 6.7c-3.1 2-6.69 3.68-10.79 5.05a39.06 39.06 0 01-12.42 2.04 49.05 49.05 0 01-19.26-3.68 43.17 43.17 0 01-14.88-10.1 48.45 48.45 0 01-9.7-15.58 57 57 0 01-3.41-20.07c0-8.47 1.32-15.8 3.96-21.99 2.64-6.19 6.1-11.33 10.38-15.43 4.37-4.1 9.28-7.1 14.74-9.01 5.56-2 11.16-3 16.8-3 5.1 0 9.79.77 14.07 2.32a46.57 46.57 0 0111.06 5.6 29.5 29.5 0 017.23 6.96c1.74 2.37 2.6 4.42 2.6 6.15 0 1.18-.41 2.27-1.23 3.27-.82.91-1.82 1.73-3 2.46-1.1.64-2.28 1.19-3.55 1.64a10.3 10.3 0 01-2.87.55c-2 0-3.69-.6-5.06-1.78a682.35 682.35 0 01-4.37-3.82 30.12 30.12 0 00-5.6-3.83c-2.18-1.18-5.1-1.77-8.73-1.77-2.92 0-5.88.54-8.88 1.64-2.91 1-5.6 2.73-8.06 5.19-2.36 2.45-4.32 5.69-5.87 9.7-1.55 3.9-2.32 8.78-2.32 14.6 0 4.92.6 9.38 1.77 13.39 1.28 3.91 3 7.28 5.2 10.1 2.18 2.83 4.82 5.01 7.91 6.56a25 25 0 0010.52 2.18c3.28 0 6.05-.5 8.33-1.5a37.4 37.4 0 006-3.55 275.6 275.6 0 004.79-3.41 6.87 6.87 0 014.37-1.64c1.36 0 2.68.22 3.96.68 1.36.36 2.55.91 3.55 1.64 1 .64 1.82 1.45 2.46 2.46.63.9.95 1.86.95 2.86zM8 222.19H3.3L2.33 225H.15l4.56-12.09H6.6L11.17 225H8.98L8 222.19zm-4.1-1.7h3.5l-1.75-5.01-1.75 5.01zM17.56 222.56a.91.91 0 00-.45-.82c-.3-.19-.78-.36-1.47-.5a7.6 7.6 0 01-1.72-.55c-1-.48-1.5-1.2-1.5-2.12 0-.77.32-1.42.97-1.94a3.87 3.87 0 012.5-.78c1.07 0 1.93.27 2.6.8.66.53.99 1.22.99 2.07h-2.02c0-.4-.14-.71-.43-.97a1.64 1.64 0 00-1.15-.39c-.44 0-.8.1-1.08.31a.97.97 0 00-.42.82c0 .31.13.55.4.72.25.18.78.35 1.57.53.79.17 1.4.38 1.86.62.45.24.79.53 1 .86.22.34.33.75.33 1.23 0 .81-.33 1.47-1 1.97a4.3 4.3 0 01-2.63.75c-.74 0-1.4-.14-1.97-.4a3.24 3.24 0 01-1.34-1.1 2.6 2.6 0 01-.49-1.5h1.96c.03.48.21.84.54 1.1.34.26.78.38 1.32.38.53 0 .94-.1 1.22-.3.27-.2.41-.46.41-.79zM26.51 222.56a.91.91 0 00-.45-.82c-.29-.19-.78-.36-1.47-.5a7.6 7.6 0 01-1.71-.55c-1.01-.48-1.51-1.2-1.51-2.12 0-.77.32-1.42.98-1.94a3.87 3.87 0 012.49-.78c1.07 0 1.94.27 2.6.8.66.53.99 1.22.99 2.07h-2.02c0-.4-.14-.71-.43-.97a1.64 1.64 0 00-1.14-.39c-.45 0-.81.1-1.1.31a.97.97 0 00-.4.82c0 .31.12.55.38.72.26.18.79.35 1.58.53.8.17 1.41.38 1.86.62.45.24.79.53 1 .86.23.34.34.75.34 1.23 0 .81-.34 1.47-1 1.97a4.3 4.3 0 01-2.64.75c-.74 0-1.4-.14-1.97-.4a3.24 3.24 0 01-1.34-1.1 2.6 2.6 0 01-.48-1.5h1.96c.02.48.2.84.54 1.1.33.26.77.38 1.32.38.53 0 .93-.1 1.2-.3.28-.2.42-.46.42-.79zM30.05 220.43c0-.88.18-1.68.53-2.38a3.8 3.8 0 011.46-1.63 4.11 4.11 0 012.18-.57c1.21 0 2.2.4 2.95 1.17a4.6 4.6 0 011.22 3.1l.01.48c0 .89-.17 1.68-.51 2.38-.34.7-.83 1.23-1.46 1.61-.63.38-1.36.58-2.2.58a3.92 3.92 0 01-3.04-1.27 4.87 4.87 0 01-1.14-3.37v-.1zm2.02.17c0 .93.2 1.65.57 2.18.38.52.92.78 1.6.78s1.2-.27 1.58-.8c.38-.53.57-1.31.57-2.33 0-.91-.2-1.63-.59-2.16-.38-.53-.91-.8-1.58-.8-.66 0-1.18.26-1.57.79a3.9 3.9 0 00-.58 2.34zM43.97 223.56c.5 0 .92-.15 1.25-.44.33-.3.51-.66.53-1.1h1.9c-.02.57-.2 1.09-.52 1.58-.33.48-.77.86-1.33 1.14-.56.28-1.16.43-1.8.43-1.26 0-2.26-.41-3-1.22a4.84 4.84 0 01-1.1-3.37v-.21c0-1.37.37-2.46 1.1-3.28a3.79 3.79 0 012.99-1.24c1.06 0 1.93.31 2.6.94a3.32 3.32 0 011.06 2.45h-1.9c-.02-.52-.2-.94-.53-1.27-.32-.33-.74-.5-1.25-.5-.65 0-1.16.24-1.51.72-.36.47-.54 1.18-.54 2.15v.32c0 .97.17 1.7.52 2.18.36.48.86.72 1.53.72zM51.5 225h-2.02v-8.98h2.01V225zm-2.15-11.31c0-.31.1-.57.3-.78.2-.2.47-.3.84-.3.36 0 .65.1.85.3.2.2.3.47.3.78 0 .3-.1.56-.3.76-.2.2-.49.3-.85.3-.37 0-.65-.1-.85-.3-.2-.2-.29-.46-.29-.76zM59.23 225a3.12 3.12 0 01-.23-.84c-.64.67-1.43 1-2.36 1-.9 0-1.63-.25-2.2-.77a2.47 2.47 0 01-.86-1.9c0-.96.35-1.7 1.06-2.2a5.17 5.17 0 013.06-.78h1.23v-.59c0-.46-.13-.83-.39-1.1-.26-.3-.65-.43-1.18-.43-.46 0-.84.11-1.13.35-.3.22-.44.51-.44.87h-2.02c0-.5.16-.95.5-1.38.32-.43.76-.77 1.32-1.01a4.7 4.7 0 011.88-.37c1.05 0 1.9.27 2.52.8.62.53.95 1.27.96 2.22v4.06c0 .8.12 1.45.34 1.93v.14h-2.06zm-2.21-1.45c.4 0 .77-.1 1.12-.3.35-.19.62-.45.8-.77v-1.7h-1.1c-.74 0-1.3.13-1.68.4-.37.25-.56.62-.56 1.1 0 .38.12.7.38.93.26.22.6.34 1.04.34zM65.76 213.84v2.18h1.59v1.5h-1.59v5c0 .35.07.6.2.75.14.15.38.23.73.23.23 0 .47-.03.7-.09v1.56c-.45.13-.9.2-1.32.2-1.55 0-2.33-.86-2.33-2.57v-5.09h-1.47v-1.5h1.47v-2.17h2.02zM71.21 225H69.2v-8.98h2.02V225zm-2.14-11.31c0-.31.1-.57.29-.78.2-.2.48-.3.85-.3.36 0 .64.1.84.3.2.2.3.47.3.78 0 .3-.1.56-.3.76-.2.2-.48.3-.84.3-.37 0-.65-.1-.85-.3-.2-.2-.29-.46-.29-.76zM73.2 220.43c0-.88.18-1.68.53-2.38a3.8 3.8 0 011.47-1.63 4.11 4.11 0 012.17-.57c1.22 0 2.2.4 2.95 1.17a4.6 4.6 0 011.23 3.1v.48c0 .89-.16 1.68-.5 2.38-.34.7-.83 1.23-1.47 1.61-.63.38-1.36.58-2.19.58a3.92 3.92 0 01-3.05-1.27 4.87 4.87 0 01-1.13-3.37v-.1zm2.02.17c0 .93.2 1.65.58 2.18.38.52.91.78 1.6.78.67 0 1.2-.27 1.58-.8.38-.53.57-1.31.57-2.33 0-.91-.2-1.63-.59-2.16-.39-.53-.92-.8-1.59-.8-.65 0-1.18.26-1.56.79a3.9 3.9 0 00-.59 2.34zM85.3 216.02l.06 1.04c.67-.8 1.54-1.2 2.62-1.2 1.87 0 2.82 1.06 2.85 3.2V225h-2.01v-5.82c0-.57-.13-.99-.38-1.26-.24-.28-.64-.42-1.2-.42-.81 0-1.42.37-1.82 1.1v6.4H83.4v-8.98h1.9zM97.1 220.44c0-1.38.31-2.49.96-3.33a3.08 3.08 0 012.58-1.26c.95 0 1.72.34 2.3 1v-4.6h2.02V225h-1.82l-.1-.93c-.6.73-1.41 1.1-2.42 1.1-1.05 0-1.9-.43-2.56-1.27-.64-.85-.97-2-.97-3.46zm2 .18c0 .91.18 1.62.53 2.14.36.5.86.76 1.5.76a1.9 1.9 0 001.81-1.1v-3.84a1.88 1.88 0 00-1.79-1.08c-.65 0-1.16.26-1.5.78-.36.52-.54 1.3-.54 2.34zM111.2 225.17a4.2 4.2 0 01-3.12-1.2 4.4 4.4 0 01-1.19-3.23v-.25c0-.9.17-1.7.52-2.4a3.85 3.85 0 013.55-2.24c1.22 0 2.16.4 2.83 1.17.67.78 1 1.89 1 3.31v.82h-5.87c.07.74.31 1.33.74 1.76.44.43.99.65 1.65.65.92 0 1.67-.38 2.25-1.13l1.1 1.04c-.37.54-.85.96-1.45 1.26-.6.29-1.27.44-2.02.44zm-.25-7.7c-.55 0-1 .2-1.34.58-.34.39-.56.93-.65 1.62h3.84v-.15a2.43 2.43 0 00-.54-1.53 1.68 1.68 0 00-1.31-.52zM121.57 222.56a.91.91 0 00-.45-.82c-.3-.19-.78-.36-1.47-.5a7.6 7.6 0 01-1.72-.55c-1-.48-1.5-1.2-1.5-2.12 0-.77.32-1.42.97-1.94a3.87 3.87 0 012.5-.78c1.07 0 1.93.27 2.6.8.66.53.99 1.22.99 2.07h-2.02c0-.4-.14-.71-.43-.97a1.65 1.65 0 00-1.15-.39c-.44 0-.8.1-1.08.31a.97.97 0 00-.42.82c0 .31.13.55.4.72.25.18.78.35 1.57.53.79.17 1.41.38 1.86.62.45.24.79.53 1 .86.22.34.34.75.34 1.23 0 .81-.34 1.47-1.01 1.97a4.3 4.3 0 01-2.63.75c-.74 0-1.4-.14-1.97-.4a3.24 3.24 0 01-1.34-1.1 2.6 2.6 0 01-.48-1.5h1.95c.03.48.21.84.54 1.1.34.26.78.38 1.32.38.53 0 .94-.1 1.22-.3.27-.2.41-.46.41-.79zM132.19 220.5v4.5h-2.1v-12.09h4.62c1.35 0 2.42.35 3.21 1.06.8.7 1.2 1.63 1.2 2.79 0 1.18-.4 2.1-1.17 2.76-.78.66-1.86.99-3.26.99h-2.5zm0-1.68h2.52c.75 0 1.32-.17 1.71-.52.4-.35.59-.86.59-1.53 0-.65-.2-1.17-.6-1.56-.4-.39-.94-.6-1.64-.6h-2.58v4.21zM146.2 225a3.09 3.09 0 01-.23-.84c-.64.67-1.43 1-2.36 1-.9 0-1.64-.25-2.2-.77a2.47 2.47 0 01-.86-1.9c0-.96.35-1.7 1.06-2.2a5.17 5.17 0 013.06-.78h1.23v-.59c0-.46-.13-.83-.39-1.1-.26-.3-.65-.43-1.18-.43-.46 0-.84.11-1.13.35-.3.22-.44.51-.44.87h-2.02c0-.5.16-.95.5-1.38.32-.43.76-.77 1.32-1.01a4.7 4.7 0 011.88-.37c1.06 0 1.9.27 2.52.8.62.53.94 1.27.96 2.22v4.06c0 .8.12 1.45.34 1.93v.14h-2.06zm-2.21-1.45c.4 0 .77-.1 1.12-.3.35-.19.62-.45.8-.77v-1.7h-1.1c-.74 0-1.3.13-1.68.4-.38.25-.56.62-.56 1.1 0 .38.13.7.38.93.26.22.6.34 1.04.34zM154.9 217.86a5.01 5.01 0 00-.82-.07c-.92 0-1.54.36-1.86 1.07V225h-2.02v-8.98h1.93l.05 1a2.27 2.27 0 012.02-1.17c.29 0 .53.04.71.12v1.9zM160.14 225.17a4.2 4.2 0 01-3.11-1.2 4.4 4.4 0 01-1.19-3.23v-.25c0-.9.17-1.7.51-2.4a3.85 3.85 0 013.55-2.24c1.23 0 2.17.4 2.84 1.17.67.78 1 1.89 1 3.31v.82h-5.87c.06.74.31 1.33.74 1.76.44.43.99.65 1.65.65.92 0 1.67-.38 2.25-1.13l1.1 1.04c-.37.54-.85.96-1.45 1.26-.6.29-1.27.44-2.02.44zm-.24-7.7c-.55 0-1 .2-1.35.58-.33.39-.55.93-.64 1.62h3.84v-.15a2.43 2.43 0 00-.54-1.53 1.68 1.68 0 00-1.31-.52zM167.36 216.02l.05 1.04c.67-.8 1.54-1.2 2.62-1.2 1.87 0 2.82 1.06 2.85 3.2V225h-2.01v-5.82c0-.57-.13-.99-.38-1.26-.24-.28-.64-.42-1.2-.42-.81 0-1.42.37-1.82 1.1v6.4h-2.01v-8.98h1.9zM177.65 213.84v2.18h1.58v1.5h-1.58v5c0 .35.06.6.2.75.13.15.38.23.72.23.24 0 .47-.03.71-.09v1.56c-.46.13-.9.2-1.33.2-1.55 0-2.32-.86-2.32-2.57v-5.09h-1.48v-1.5h1.48v-2.17h2.02zM185.98 222.56a.91.91 0 00-.44-.82c-.3-.19-.79-.36-1.47-.5a7.6 7.6 0 01-1.72-.55c-1-.48-1.51-1.2-1.51-2.12 0-.77.32-1.42.98-1.94a3.87 3.87 0 012.49-.78c1.07 0 1.94.27 2.6.8.66.53 1 1.22 1 2.07h-2.03c0-.4-.14-.71-.43-.97a1.64 1.64 0 00-1.14-.39c-.45 0-.8.1-1.1.31a.97.97 0 00-.4.82c0 .31.13.55.38.72.27.18.79.35 1.58.53.8.17 1.41.38 1.86.62.46.24.79.53 1 .86.23.34.34.75.34 1.23 0 .81-.34 1.47-1 1.97a4.3 4.3 0 01-2.64.75c-.73 0-1.39-.14-1.97-.4a3.24 3.24 0 01-1.34-1.1 2.6 2.6 0 01-.48-1.5h1.96c.03.48.2.84.54 1.1.33.26.77.38 1.32.38.53 0 .93-.1 1.2-.3.28-.2.42-.46.42-.79zM193.93 220.44c0-1.38.32-2.49.96-3.33a3.08 3.08 0 012.58-1.26c.95 0 1.72.34 2.3 1v-4.6h2.03V225h-1.83l-.1-.93c-.6.73-1.4 1.1-2.41 1.1-1.06 0-1.9-.43-2.56-1.27-.65-.85-.97-2-.97-3.46zm2.01.18c0 .91.18 1.62.53 2.14.35.5.85.76 1.5.76a1.9 1.9 0 001.8-1.1v-3.84a1.88 1.88 0 00-1.78-1.08c-.66 0-1.16.26-1.51.78-.36.52-.54 1.3-.54 2.34zM209.51 224.12c-.59.7-1.43 1.05-2.52 1.05-.98 0-1.71-.29-2.22-.86-.5-.57-.75-1.4-.75-2.47v-5.82h2.02v5.8c0 1.13.47 1.7 1.42 1.7.98 0 1.64-.35 1.98-1.05v-6.45h2.02V225h-1.9l-.05-.88zM227.5 221.06a4.38 4.38 0 01-1.42 3.03 4.88 4.88 0 01-3.31 1.08c-.97 0-1.81-.23-2.55-.68a4.53 4.53 0 01-1.7-1.96c-.4-.84-.6-1.81-.62-2.93v-1.12c0-1.14.2-2.15.6-3.02a4.58 4.58 0 014.37-2.71c1.33 0 2.4.36 3.22 1.09a4.54 4.54 0 011.42 3.07h-2.1c-.1-.87-.35-1.5-.76-1.88-.4-.39-1-.58-1.78-.58-.92 0-1.62.34-2.11 1a5 5 0 00-.75 2.93v1.08c0 1.3.23 2.3.7 2.98a2.34 2.34 0 002.06 1.03c.82 0 1.44-.18 1.86-.55.41-.37.68-1 .79-1.85h2.09zM236.53 219.88h-4.87V225h-2.1v-12.09h7.68v1.7h-5.58v3.6h4.87v1.67zM239.08 225v-12.09h4.14c1.37 0 2.4.28 3.12.83.72.54 1.07 1.36 1.07 2.44a2.6 2.6 0 01-.45 1.5c-.3.44-.73.78-1.3 1.03.65.17 1.15.51 1.5 1 .36.49.54 1.08.54 1.76 0 1.14-.36 2-1.1 2.62-.72.6-1.76.91-3.11.91h-4.41zm2.1-5.45v3.77h2.33c.66 0 1.17-.16 1.55-.49.37-.32.55-.78.55-1.36 0-1.25-.64-1.9-1.93-1.92h-2.5zm0-1.55h2.06c.65 0 1.16-.14 1.52-.44.38-.3.56-.72.56-1.26 0-.6-.17-1.03-.51-1.3-.34-.26-.87-.4-1.59-.4h-2.04v3.4zM252.07 223.32h5.49V225h-7.59v-12.09h2.1v10.41z"/>
</svg>