<svg width="429" height="235" viewBox="0 0 429 235" fill="none" xmlns="http://www.w3.org/2000/svg">
<path d="M288.611 175.263H322.127L317.769 120.738L291.697 120.817L290.759 137.361L288.611 175.263Z" fill="#B3ABAB"/>
<path d="M291.698 120.817L317.77 120.738L319.149 137.995L324.342 128.595L319.203 118.602L304.909 114.359L290.509 118.678L285.405 128.502L290.81 136.469L291.698 120.817Z" fill="white"/>
<path d="M303.977 139.72H294.077V138.261H303.977V139.72Z" fill="white"/>
<path d="M315.997 139.72H306.099V138.261H315.997V139.72Z" fill="white"/>
<path d="M315.451 136.961H306.099V135.503H315.451V136.961Z" fill="white"/>
<path d="M303.704 136.961H294.384V135.503H303.704V136.961Z" fill="white"/>
<path d="M303.704 134.296H294.613V132.837H303.704V134.296Z" fill="white"/>
<path d="M315.32 134.296H306.229V132.837H315.32V134.296Z" fill="white"/>
<path d="M315.189 131.632H306.229V130.173H315.189V131.632Z" fill="white"/>
<path d="M303.639 131.632H294.68V130.173H303.639V131.632Z" fill="white"/>
<path d="M295.587 128.887L296.153 128.415L296.718 128.18H297.002H297.519V127.708L297.85 126.955L298.226 126.53L298.698 126.152L299.159 125.951H299.358H299.687L299.971 126.2L300.207 126.435L300.49 126.812L300.726 127.143V127.418L300.961 127.991L301.197 128.038H301.479H301.762L302.093 128.084L302.422 128.274L302.753 128.415V128.651L299.17 128.77L295.587 128.887Z" fill="white"/>
<path d="M306.711 128.887L307.278 128.415L307.843 128.18H308.127H308.644V127.708L308.974 126.955L309.351 126.53L309.823 126.152L310.284 125.951H310.483H310.812L311.096 126.2L311.331 126.435L311.614 126.812L311.85 127.143V127.418L312.086 127.991L312.32 128.038H312.604H312.887L313.216 128.084L313.547 128.274L313.876 128.415V128.651L310.295 128.77L306.711 128.887Z" fill="white"/>
<path d="M298.227 172.58C298.227 173.277 297.951 173.848 297.613 173.848C297.277 173.848 297.001 173.277 297.001 172.58V144.949C297.001 144.252 297.277 143.68 297.613 143.68C297.951 143.68 298.227 144.252 298.227 144.949V172.58Z" fill="white"/>
<path d="M305.103 172.58C305.103 173.277 304.851 173.848 304.54 173.848C304.231 173.848 303.978 173.277 303.978 172.58V144.478C303.978 143.78 304.231 143.209 304.54 143.209C304.851 143.209 305.103 143.78 305.103 144.478V172.58Z" fill="white"/>
<path d="M313.029 172.58C313.029 173.277 312.731 173.848 312.369 173.848C312.005 173.848 311.709 173.277 311.709 172.58V144.478C311.709 143.78 312.005 143.209 312.369 143.209C312.731 143.209 313.029 143.78 313.029 144.478V172.58Z" fill="white"/>
<path d="M290.759 137.361L284.791 128.453L289.977 117.99L291.157 117.565L292.193 117.236L293.183 116.576L293.831 115.286L294.691 113.817L295.681 111.696L296.389 109.858L304.59 107.453L312.581 109.433L313.43 112.545L314.419 114.384L315.197 115.585L316.805 116.576L319.486 117.141L325.333 127.512V128.406L319.17 138.262L319.11 137.504L324.342 128.596L319.203 118.602L304.909 114.36L290.51 118.678L285.405 128.501L290.81 136.469L290.759 137.361Z" fill="#2F8CCB"/>
<path d="M293.984 106.181L292.428 103.353L295.68 96.7765L304.807 93.5952L313.712 96.2819L317.39 103.141L315.834 106.181L316.804 116.01V116.575L315.196 115.585L314.419 114.383L313.428 112.545L312.58 109.433L304.59 107.454L296.388 109.858L295.68 111.697L294.691 113.818L293.698 115.513L293.963 106.862L293.984 106.181Z" fill="#C8C4C4"/>
<path d="M299.169 101.444V102.504L303.176 101.444V100.17L299.169 101.444Z" fill="white"/>
<path d="M303.176 101.938V102.857L299.169 104.201V103.353L303.176 101.938Z" fill="white"/>
<path d="M303.176 103.777V104.201V104.766L299.169 105.969V105.402L303.176 103.777Z" fill="white"/>
<path d="M303.176 105.545V106.862L299.169 107.949V106.862L303.176 105.545Z" fill="white"/>
<path d="M310.294 99.676V100.171L306.229 99.3214V98.756L310.294 99.676Z" fill="white"/>
<path d="M309.965 101.337V101.939L306.229 101.019V100.453L309.965 101.337Z" fill="white"/>
<path d="M310.294 103.423V104.201L306.229 102.858V102.221L310.294 103.423Z" fill="white"/>
<path d="M310.294 105.262V105.969L306.229 104.873V104.201L310.294 105.262Z" fill="white"/>
<path d="M310.294 106.862V107.949L306.229 106.746V105.969L310.294 106.862Z" fill="white"/>
<path d="M299.169 99.7463V100.736L303.176 99.4636V98.7569L299.169 99.7463Z" fill="white"/>
<path d="M292.828 100.685L291.787 103.23L293.981 106.858L294.001 106.177L292.447 103.347L295.7 96.7727L304.825 93.5913L313.729 96.278L317.407 103.135L315.851 106.177L315.915 106.822L317.948 103.23L315.309 96.442L314.319 94.086L313.424 91.162L312.669 88.286L311.82 84.8927L311.02 81.0753L310.453 78.482L309.841 74.1927L309.464 70.846L308.332 60.098L307.579 52.8393L307.331 49.2087L306.588 43.506L306.871 42.786L306.765 41.7607L306.695 41.1247L306.729 40.5593L306.412 40.0287L306.093 39.3567L305.812 33.1673C308 32 308.5 28 304.897 26.982L304.904 26.9127L304.237 8.60334L303.572 26.9127C303.572 26.9127 303.594 26.9802 303.567 26.9847C301 27.398 299.369 31.5753 302.957 33.3073L302.676 39.3567L302.016 40.866L301.78 43.222L302.016 43.5993L301.592 48.974L300.601 60.3807L299.895 71.1287L299.375 75.5127L298.857 79.6607L298.292 83.338L297.443 87.25L296.783 90.1727L295.511 94.038L292.828 100.685Z" fill="#2F8CCB"/>
<path d="M297.307 25.5028L311.449 15.2495V14.4721L297.307 24.6535V25.5028Z" fill="#2F8CCB"/>
<path d="M298.721 12.9872V13.8365L309.187 26.9165V26.4925L298.721 12.9872Z" fill="#2F8CCB"/>
<path d="M296.035 26.5633V27.07L297.307 26.3033V24.3007L296.035 25.0073V25.6087L296.883 25.126V25.4553L296.577 25.6673L296.589 25.9153L296.895 25.7273L296.871 26.0327L296.035 26.5633Z" fill="#2F8CCB"/>
<path d="M310.955 13.7469L311.291 15.6736L311.856 15.3909V14.1536V13.8709H312.085V15.0909L312.616 14.7109L312.917 12.4389L312.457 12.6869L312.404 13.4643L312.228 13.4296L312.209 12.8816L311.68 13.2176L311.608 14.2243H311.449L311.361 13.4123L310.955 13.7469Z" fill="#2F8CCB"/>
<path d="M298.721 14.0569L298.741 13.8369L298.933 11.6436L298.439 11.3956V11.9623L298.156 11.8903V11.0063H297.589V12.5316L298.015 12.9876L298.261 12.5316V13.5183L298.721 14.0569Z" fill="#2F8CCB"/>
<path d="M310.807 26.6526L309.717 25.6846L309.553 25.9032L309.505 26.1246L309.779 26.4512L309.954 26.6992L309.695 27.0086L309.505 26.9166L309.186 26.4926L308.903 26.9166L309.805 28.2606L310.106 28.4366L310.389 28.1539L310.495 27.9059V27.5526L310.389 27.0699L310.706 27.0059L310.807 26.6526Z" fill="#2F8CCB"/>
<path d="M300.112 1.4143V-0.000368118H298.721L299.417 2.5463L307.56 14.0556V16.0276L308.316 16.7276L308.904 14.0556L308.313 12.9876H307.56L306.052 11.0076L305.896 10.5503L305.675 9.89963L306.807 11.0076H307.56V9.14496V7.3543L306.632 6.4423L306.145 5.42097L305.663 5.49163L305.103 6.31697L304.851 4.14896V2.45163L304.237 1.69697L303.553 1.79163L303.129 2.5463L303.553 3.67696L303.955 4.52497L304.237 5.27963V6.12897L303.955 6.6943L304.332 7.44763L304.237 8.60363L300.112 1.97963V1.4143Z" fill="#2F8CCB"/>
<path d="M328.831 78.3921C317.172 96.5668 311.437 114.115 313.92 136.148C314.876 142.421 316.66 148.619 319.187 154.551C324.236 166.419 332.247 177.235 342.511 185.443C352.771 192.681 363.013 196.997 374.688 196.929C381.993 198.347 387.797 192.473 395.084 190.971C422.736 177.671 431.303 145.512 428.209 116.34C426.707 109.052 424.843 102.129 421.885 95.9441C418.931 89.7588 414.884 84.3095 409.02 79.9668C389.969 66.9455 362.163 53.9748 340.505 67.3348C336.128 70.1055 332.212 73.8081 328.831 78.3921Z" fill="#008BD2"/>
<path d="M318.077 151.805C307.5 154.12 298.23 159.514 291.148 167.34C288.696 169.964 286.716 172.834 285.282 175.95C276.449 197.261 296.193 224.605 322.012 232.218C326.264 233.568 330.205 234.056 334.029 234.056C340.253 234.056 346.169 232.765 352.625 231.792C359.564 229.704 365.788 225.63 370.612 220.722C372.665 217.277 374.721 213.833 376.776 210.388C377.982 206.085 378.56 201.609 378.545 197.05C378.025 197.113 377.5 197.149 376.968 197.149C376.222 197.149 375.464 197.08 374.688 196.93C374.597 196.93 374.505 196.932 374.414 196.932C362.853 196.932 352.69 192.624 342.51 185.444C332.246 177.234 324.236 166.418 319.186 154.552C318.8 153.642 318.43 152.725 318.077 151.805Z" fill="#FDC300"/>
<path d="M330.035 150.533C325.905 150.533 321.906 150.966 318.077 151.805C318.43 152.726 318.799 153.642 319.186 154.551C324.235 166.418 332.246 177.234 342.51 185.443C352.69 192.623 362.853 196.931 374.414 196.931C374.506 196.931 374.597 196.93 374.687 196.93C375.463 197.079 376.223 197.149 376.967 197.149C377.501 197.149 378.025 197.114 378.545 197.05C378.517 188.886 376.583 180.458 372.935 172.287C368.706 166.651 365.161 159.867 356.078 156.007C347.099 152.275 338.306 150.533 330.035 150.533Z" fill="#007443"/>
<path d="M74.9012 191.218C73.2624 191.218 71.7603 190.718 70.3946 189.716C69.1201 188.624 67.7089 186.757 66.1613 184.117C65.0688 182.023 64.0673 180.521 63.1569 179.611C62.3375 178.609 61.2451 177.835 59.8794 177.289C59.0601 176.834 57.5579 176.561 55.3729 176.47C53.279 176.288 50.5933 176.197 47.3158 176.197H36.9372C35.0253 176.197 33.3866 176.288 32.021 176.47C30.7464 176.561 29.5629 176.925 28.4704 177.562C27.469 178.108 26.4675 178.973 25.4661 180.157C24.4646 181.34 23.3721 182.934 22.1886 184.936C20.823 187.03 19.5484 188.624 18.3649 189.716C17.1814 190.718 15.0874 191.218 12.0831 191.218H6.62063C5.07294 191.218 3.84389 190.945 2.93348 190.399C2.11412 189.853 1.56787 189.17 1.29475 188.351C1.02163 187.531 0.930587 186.621 1.02163 185.619C1.11267 184.527 1.34027 183.48 1.70443 182.478L29.836 106.55C31.7479 101.27 34.8432 98.6299 39.1222 98.6299H48.6814C50.5933 98.6299 52.3686 99.1306 54.0073 100.132C55.7371 101.042 57.1482 103 58.2407 106.004L87.7379 184.117C88.6483 186.575 88.3752 188.396 86.9185 189.58C85.4619 190.672 83.6411 191.218 81.4561 191.218H74.9012ZM50.8664 134.682C50.047 131.678 49.0911 129.629 47.9986 128.537C46.9061 127.353 45.6771 126.761 44.3115 126.761C41.4892 126.761 39.3953 129.22 38.0297 134.136L32.8404 151.889C32.4762 153.163 32.4307 154.392 32.7038 155.576C33.068 156.759 33.6142 157.852 34.3425 158.853C35.0709 159.764 35.9357 160.538 36.9372 161.175C38.0297 161.721 39.2132 161.994 40.4878 161.994H47.5889C50.5933 161.994 52.9148 160.902 54.5536 158.717C56.1923 156.532 56.602 154.074 55.7826 151.342L50.8664 134.682Z" fill="#008BD2"/>
<path d="M115.062 184.39C115.062 185.119 114.925 185.892 114.652 186.712C114.379 187.531 113.924 188.305 113.287 189.033C112.649 189.671 111.784 190.262 110.692 190.809C109.69 191.264 108.416 191.491 106.868 191.491C102.225 191.491 99.0387 190.9 97.3089 189.716C95.6702 188.442 94.8508 186.302 94.8508 183.298V106.277C94.8508 103.819 95.4426 101.998 96.6261 100.815C97.9007 99.5403 99.5849 98.903 101.679 98.903H142.92C147.654 98.903 151.933 99.5858 155.757 100.951C159.672 102.317 162.995 104.229 165.726 106.687C168.457 109.145 170.551 112.104 172.008 115.563C173.555 119.023 174.329 122.847 174.329 127.035C174.329 133.225 173.373 138.415 171.462 142.603C169.55 146.79 166.773 150.204 163.131 152.845C159.581 155.394 155.211 157.26 150.021 158.444C144.832 159.536 139.006 160.082 132.542 160.082C128.263 160.082 124.94 160.355 122.573 160.902C120.297 161.357 118.567 162.176 117.383 163.36C116.291 164.543 115.608 166.137 115.335 168.139C115.153 170.051 115.062 172.464 115.062 175.377V184.39ZM127.352 112.559C122.709 112.559 119.432 113.697 117.52 115.973C115.699 118.249 114.789 122.392 114.789 128.4V133.863C114.789 138.506 115.927 141.783 118.203 143.695C120.57 145.516 124.621 146.426 130.357 146.426C146.198 146.426 154.118 140.691 154.118 129.22C154.118 124.121 152.389 120.07 148.929 117.066C145.56 114.061 140.462 112.559 133.634 112.559H127.352Z" fill="#008BD2"/>
<path d="M260.893 174.694C260.893 176.606 259.892 178.746 257.889 181.113C255.977 183.48 253.428 185.71 250.241 187.804C247.146 189.807 243.55 191.491 239.453 192.857C235.356 194.223 231.214 194.905 227.026 194.905C220.016 194.905 213.597 193.676 207.771 191.218C202.035 188.851 197.074 185.483 192.886 181.113C188.789 176.743 185.557 171.553 183.19 165.545C180.914 159.445 179.776 152.754 179.776 145.47C179.776 137.004 181.096 129.675 183.736 123.484C186.376 117.293 189.836 112.149 194.115 108.053C198.485 103.956 203.401 100.951 208.863 99.0396C214.417 97.0367 220.016 96.0352 225.66 96.0352C230.759 96.0352 235.447 96.8091 239.726 98.3568C244.005 99.9045 247.692 101.771 250.788 103.956C253.883 106.141 256.296 108.462 258.025 110.92C259.755 113.287 260.62 115.336 260.62 117.066C260.62 118.249 260.21 119.342 259.391 120.343C258.572 121.254 257.57 122.073 256.387 122.801C255.294 123.438 254.111 123.985 252.836 124.44C251.652 124.804 250.696 124.986 249.968 124.986C247.965 124.986 246.281 124.394 244.915 123.211C243.55 122.027 242.093 120.753 240.545 119.387C238.998 118.022 237.131 116.747 234.946 115.563C232.761 114.38 229.848 113.788 226.207 113.788C223.293 113.788 220.334 114.334 217.33 115.427C214.417 116.428 211.731 118.158 209.273 120.616C206.906 123.074 204.949 126.306 203.401 130.312C201.853 134.227 201.079 139.097 201.079 144.924C201.079 149.84 201.671 154.301 202.855 158.307C204.129 162.222 205.859 165.59 208.044 168.413C210.229 171.235 212.869 173.42 215.964 174.968C219.151 176.424 222.656 177.152 226.48 177.152C229.757 177.152 232.534 176.652 234.81 175.65C237.086 174.558 239.089 173.374 240.819 172.1C242.639 170.825 244.233 169.687 245.598 168.686C246.964 167.593 248.42 167.047 249.968 167.047C251.334 167.047 252.654 167.275 253.928 167.73C255.294 168.094 256.478 168.64 257.479 169.369C258.48 170.006 259.3 170.825 259.937 171.827C260.574 172.737 260.893 173.693 260.893 174.694Z" fill="#008BD2"/>
<path d="M7.99365 222.186H3.31201L2.33252 225H0.149414L4.71484 212.914H6.59912L11.1729 225H8.98145L7.99365 222.186ZM3.90137 220.493H7.4043L5.65283 215.479L3.90137 220.493Z" fill="#008BD2"/>
<path d="M17.5601 222.56C17.5601 222.2 17.4107 221.926 17.1119 221.738C16.8186 221.55 16.3289 221.384 15.6427 221.24C14.9565 221.096 14.3837 220.913 13.9244 220.692C12.9172 220.205 12.4137 219.499 12.4137 218.575C12.4137 217.8 12.7401 217.153 13.3931 216.633C14.0461 216.113 14.8762 215.853 15.8834 215.853C16.9569 215.853 17.823 216.118 18.4815 216.649C19.1456 217.181 19.4776 217.87 19.4776 218.716H17.4605C17.4605 218.329 17.3166 218.008 17.0289 217.753C16.7411 217.493 16.3593 217.363 15.8834 217.363C15.4407 217.363 15.0782 217.466 14.796 217.67C14.5193 217.875 14.3809 218.149 14.3809 218.492C14.3809 218.802 14.511 219.043 14.7711 219.214C15.0312 219.386 15.5569 219.56 16.3482 219.737C17.1396 219.909 17.7594 220.116 18.2076 220.36C18.6614 220.598 18.9962 220.886 19.212 221.223C19.4333 221.561 19.544 221.97 19.544 222.452C19.544 223.26 19.2092 223.915 18.5396 224.419C17.87 224.917 16.9929 225.166 15.9083 225.166C15.1723 225.166 14.5165 225.033 13.941 224.768C13.3655 224.502 12.9172 224.137 12.5963 223.672C12.2753 223.207 12.1148 222.706 12.1148 222.169H14.0738C14.1015 222.645 14.2813 223.013 14.6134 223.273C14.9454 223.528 15.3853 223.655 15.9332 223.655C16.4644 223.655 16.8684 223.556 17.1451 223.356C17.4218 223.152 17.5601 222.886 17.5601 222.56Z" fill="#008BD2"/>
<path d="M26.5124 222.56C26.5124 222.2 26.3629 221.926 26.0641 221.738C25.7708 221.55 25.2811 221.384 24.5949 221.24C23.9087 221.096 23.3359 220.913 22.8766 220.692C21.8695 220.205 21.3659 219.499 21.3659 218.575C21.3659 217.8 21.6924 217.153 22.3454 216.633C22.9984 216.113 23.8284 215.853 24.8356 215.853C25.9092 215.853 26.7752 216.118 27.4338 216.649C28.0978 217.181 28.4298 217.87 28.4298 218.716H26.4128C26.4128 218.329 26.2689 218.008 25.9811 217.753C25.6934 217.493 25.3115 217.363 24.8356 217.363C24.3929 217.363 24.0304 217.466 23.7482 217.67C23.4715 217.875 23.3332 218.149 23.3332 218.492C23.3332 218.802 23.4632 219.043 23.7233 219.214C23.9834 219.386 24.5091 219.56 25.3004 219.737C26.0918 219.909 26.7116 220.116 27.1598 220.36C27.6136 220.598 27.9484 220.886 28.1642 221.223C28.3856 221.561 28.4963 221.97 28.4963 222.452C28.4963 223.26 28.1615 223.915 27.4919 224.419C26.8223 224.917 25.9451 225.166 24.8605 225.166C24.1245 225.166 23.4687 225.033 22.8932 224.768C22.3177 224.502 21.8695 224.137 21.5485 223.672C21.2275 223.207 21.0671 222.706 21.0671 222.169H23.026C23.0537 222.645 23.2336 223.013 23.5656 223.273C23.8976 223.528 24.3376 223.655 24.8854 223.655C25.4167 223.655 25.8206 223.556 26.0973 223.356C26.374 223.152 26.5124 222.886 26.5124 222.56Z" fill="#008BD2"/>
<path d="M30.0525 220.426C30.0525 219.546 30.2268 218.755 30.5754 218.052C30.9241 217.344 31.4138 216.802 32.0447 216.425C32.6755 216.043 33.4005 215.853 34.2195 215.853C35.4314 215.853 36.4136 216.243 37.1663 217.023C37.9244 217.803 38.3339 218.838 38.3948 220.127L38.4031 220.601C38.4031 221.486 38.2315 222.277 37.8884 222.975C37.5509 223.672 37.0639 224.211 36.4275 224.593C35.7966 224.975 35.0662 225.166 34.2361 225.166C32.9688 225.166 31.9534 224.745 31.1897 223.904C30.4315 223.058 30.0525 221.931 30.0525 220.526V220.426ZM32.0696 220.601C32.0696 221.525 32.2605 222.25 32.6423 222.775C33.0242 223.296 33.5554 223.556 34.2361 223.556C34.9167 223.556 35.4452 223.29 35.8215 222.759C36.2034 222.228 36.3943 221.45 36.3943 220.426C36.3943 219.519 36.1978 218.799 35.8049 218.268C35.4176 217.737 34.8891 217.471 34.2195 217.471C33.5609 217.471 33.038 217.734 32.6506 218.26C32.2633 218.78 32.0696 219.56 32.0696 220.601Z" fill="#008BD2"/>
<path d="M43.9686 223.556C44.4722 223.556 44.89 223.409 45.222 223.116C45.554 222.822 45.7311 222.46 45.7532 222.028H47.6541C47.632 222.587 47.4577 223.11 47.1312 223.597C46.8047 224.079 46.362 224.46 45.803 224.743C45.2441 225.025 44.6409 225.166 43.9935 225.166C42.7373 225.166 41.7412 224.759 41.0052 223.946C40.2692 223.132 39.9012 222.009 39.9012 220.576V220.368C39.9012 219.001 40.2664 217.908 40.9969 217.089C41.7274 216.265 42.7235 215.853 43.9852 215.853C45.0532 215.853 45.922 216.165 46.5916 216.791C47.2668 217.41 47.6209 218.227 47.6541 219.239H45.7532C45.7311 218.725 45.554 218.301 45.222 217.969C44.8955 217.637 44.4777 217.471 43.9686 217.471C43.3156 217.471 42.812 217.709 42.4578 218.185C42.1037 218.655 41.9238 219.372 41.9183 220.335V220.659C41.9183 221.633 42.0926 222.36 42.4412 222.842C42.7954 223.318 43.3045 223.556 43.9686 223.556Z" fill="#008BD2"/>
<path d="M51.4931 225H49.476V216.019H51.4931V225ZM49.3515 213.686C49.3515 213.376 49.4483 213.119 49.642 212.914C49.8412 212.709 50.1234 212.607 50.4887 212.607C50.8539 212.607 51.1361 212.709 51.3354 212.914C51.5346 213.119 51.6342 213.376 51.6342 213.686C51.6342 213.99 51.5346 214.245 51.3354 214.45C51.1361 214.649 50.8539 214.749 50.4887 214.749C50.1234 214.749 49.8412 214.649 49.642 214.45C49.4483 214.245 49.3515 213.99 49.3515 213.686Z" fill="#008BD2"/>
<path d="M59.2334 225C59.1448 224.828 59.0674 224.549 59.001 224.162C58.359 224.831 57.5732 225.166 56.6435 225.166C55.7415 225.166 55.0055 224.909 54.4355 224.394C53.8655 223.879 53.5805 223.243 53.5805 222.485C53.5805 221.528 53.9347 220.794 54.643 220.285C55.3569 219.771 56.3751 219.513 57.6977 219.513H58.9346V218.924C58.9346 218.459 58.8045 218.088 58.5444 217.812C58.2843 217.529 57.8887 217.388 57.3574 217.388C56.8981 217.388 56.5218 217.504 56.2285 217.737C55.9352 217.964 55.7886 218.254 55.7886 218.608H53.7715C53.7715 218.116 53.9347 217.657 54.2612 217.23C54.5877 216.799 55.0304 216.461 55.5893 216.218C56.1538 215.974 56.7819 215.853 57.4736 215.853C58.525 215.853 59.3634 216.118 59.9888 216.649C60.6141 217.175 60.935 217.917 60.9516 218.874V222.925C60.9516 223.733 61.0651 224.377 61.292 224.859V225H59.2334ZM57.0171 223.547C57.4155 223.547 57.789 223.451 58.1377 223.257C58.4918 223.063 58.7575 222.803 58.9346 222.477V220.783H57.8471C57.1001 220.783 56.5384 220.913 56.1621 221.173C55.7858 221.433 55.5976 221.801 55.5976 222.277C55.5976 222.665 55.7249 222.975 55.9795 223.207C56.2396 223.434 56.5854 223.547 57.0171 223.547Z" fill="#008BD2"/>
<path d="M65.7618 213.835V216.019H67.3472V217.513H65.7618V222.526C65.7618 222.869 65.8282 223.118 65.961 223.273C66.0993 223.423 66.3428 223.498 66.6915 223.498C66.9239 223.498 67.1591 223.47 67.397 223.415V224.975C66.9377 225.102 66.495 225.166 66.0689 225.166C64.5194 225.166 63.7447 224.311 63.7447 222.601V217.513H62.2671V216.019H63.7447V213.835H65.7618Z" fill="#008BD2"/>
<path d="M71.2111 225H69.194V216.019H71.2111V225ZM69.0695 213.686C69.0695 213.376 69.1663 213.119 69.36 212.914C69.5592 212.709 69.8414 212.607 70.2067 212.607C70.5719 212.607 70.8541 212.709 71.0534 212.914C71.2526 213.119 71.3522 213.376 71.3522 213.686C71.3522 213.99 71.2526 214.245 71.0534 214.45C70.8541 214.649 70.5719 214.749 70.2067 214.749C69.8414 214.749 69.5592 214.649 69.36 214.45C69.1663 214.245 69.0695 213.99 69.0695 213.686Z" fill="#008BD2"/>
<path d="M73.2072 220.426C73.2072 219.546 73.3816 218.755 73.7302 218.052C74.0788 217.344 74.5686 216.802 75.1994 216.425C75.8303 216.043 76.5552 215.853 77.3742 215.853C78.5862 215.853 79.5684 216.243 80.321 217.023C81.0792 217.803 81.4887 218.838 81.5495 220.127L81.5578 220.601C81.5578 221.486 81.3863 222.277 81.0432 222.975C80.7056 223.672 80.2186 224.211 79.5822 224.593C78.9514 224.975 78.2209 225.166 77.3908 225.166C76.1236 225.166 75.1081 224.745 74.3445 223.904C73.5863 223.058 73.2072 221.931 73.2072 220.526V220.426ZM75.2243 220.601C75.2243 221.525 75.4153 222.25 75.7971 222.775C76.1789 223.296 76.7102 223.556 77.3908 223.556C78.0715 223.556 78.6 223.29 78.9763 222.759C79.3581 222.228 79.549 221.45 79.549 220.426C79.549 219.519 79.3526 218.799 78.9597 218.268C78.5723 217.737 78.0438 217.471 77.3742 217.471C76.7157 217.471 76.1928 217.734 75.8054 218.26C75.418 218.78 75.2243 219.56 75.2243 220.601Z" fill="#008BD2"/>
<path d="M85.3055 216.019L85.3636 217.056C86.0276 216.254 86.8992 215.853 87.9783 215.853C89.8488 215.853 90.8006 216.923 90.8338 219.065V225H88.8167V219.181C88.8167 218.611 88.6922 218.191 88.4432 217.919C88.1997 217.643 87.7985 217.504 87.2395 217.504C86.4261 217.504 85.8201 217.872 85.4217 218.608V225H83.4046V216.019H85.3055Z" fill="#008BD2"/>
<path d="M97.0922 220.443C97.0922 219.059 97.4132 217.95 98.0551 217.114C98.6971 216.273 99.5576 215.853 100.637 215.853C101.589 215.853 102.358 216.185 102.944 216.849V212.25H104.961V225H103.135L103.036 224.07C102.432 224.801 101.627 225.166 100.62 225.166C99.5686 225.166 98.7164 224.743 98.0634 223.896C97.416 223.049 97.0922 221.898 97.0922 220.443ZM99.1093 220.617C99.1093 221.53 99.2837 222.244 99.6323 222.759C99.9865 223.268 100.487 223.522 101.135 223.522C101.959 223.522 102.562 223.154 102.944 222.418V218.583C102.574 217.864 101.976 217.504 101.151 217.504C100.498 217.504 99.9948 217.764 99.6406 218.285C99.2864 218.799 99.1093 219.577 99.1093 220.617Z" fill="#008BD2"/>
<path d="M111.191 225.166C109.913 225.166 108.875 224.765 108.078 223.962C107.287 223.154 106.891 222.081 106.891 220.742V220.493C106.891 219.596 107.063 218.797 107.406 218.094C107.754 217.385 108.241 216.835 108.867 216.442C109.492 216.049 110.189 215.853 110.959 215.853C112.182 215.853 113.125 216.243 113.789 217.023C114.459 217.803 114.793 218.907 114.793 220.335V221.148H108.925C108.986 221.89 109.232 222.477 109.664 222.908C110.101 223.34 110.649 223.556 111.307 223.556C112.231 223.556 112.984 223.182 113.565 222.435L114.652 223.473C114.293 224.009 113.811 224.427 113.208 224.726C112.61 225.019 111.938 225.166 111.191 225.166ZM110.95 217.471C110.397 217.471 109.949 217.665 109.606 218.052C109.268 218.44 109.052 218.979 108.958 219.671H112.801V219.521C112.757 218.846 112.577 218.337 112.262 217.994C111.946 217.646 111.509 217.471 110.95 217.471Z" fill="#008BD2"/>
<path d="M121.571 222.56C121.571 222.2 121.422 221.926 121.123 221.738C120.829 221.55 120.34 221.384 119.653 221.24C118.967 221.096 118.394 220.913 117.935 220.692C116.928 220.205 116.424 219.499 116.424 218.575C116.424 217.8 116.751 217.153 117.404 216.633C118.057 216.113 118.887 215.853 119.894 215.853C120.968 215.853 121.834 216.118 122.492 216.649C123.156 217.181 123.488 217.87 123.488 218.716H121.471C121.471 218.329 121.327 218.008 121.04 217.753C120.752 217.493 120.37 217.363 119.894 217.363C119.451 217.363 119.089 217.466 118.807 217.67C118.53 217.875 118.392 218.149 118.392 218.492C118.392 218.802 118.522 219.043 118.782 219.214C119.042 219.386 119.568 219.56 120.359 219.737C121.15 219.909 121.77 220.116 122.218 220.36C122.672 220.598 123.007 220.886 123.223 221.223C123.444 221.561 123.555 221.97 123.555 222.452C123.555 223.26 123.22 223.915 122.55 224.419C121.881 224.917 121.004 225.166 119.919 225.166C119.183 225.166 118.527 225.033 117.952 224.768C117.376 224.502 116.928 224.137 116.607 223.672C116.286 223.207 116.126 222.706 116.126 222.169H118.085C118.112 222.645 118.292 223.013 118.624 223.273C118.956 223.528 119.396 223.655 119.944 223.655C120.475 223.655 120.879 223.556 121.156 223.356C121.433 223.152 121.571 222.886 121.571 222.56Z" fill="#008BD2"/>
<path d="M132.187 220.509V225H130.087V212.914H134.711C136.061 212.914 137.132 213.265 137.923 213.968C138.72 214.671 139.118 215.601 139.118 216.757C139.118 217.942 138.728 218.863 137.948 219.521C137.173 220.18 136.086 220.509 134.686 220.509H132.187ZM132.187 218.824H134.711C135.458 218.824 136.028 218.65 136.421 218.301C136.814 217.947 137.01 217.438 137.01 216.774C137.01 216.121 136.811 215.601 136.412 215.213C136.014 214.82 135.466 214.618 134.769 214.607H132.187V218.824Z" fill="#008BD2"/>
<path d="M146.203 225C146.114 224.828 146.037 224.549 145.971 224.162C145.329 224.831 144.543 225.166 143.613 225.166C142.711 225.166 141.975 224.909 141.405 224.394C140.835 223.879 140.55 223.243 140.55 222.485C140.55 221.528 140.904 220.794 141.613 220.285C142.327 219.771 143.345 219.513 144.667 219.513H145.904V218.924C145.904 218.459 145.774 218.088 145.514 217.812C145.254 217.529 144.858 217.388 144.327 217.388C143.868 217.388 143.491 217.504 143.198 217.737C142.905 217.964 142.758 218.254 142.758 218.608H140.741C140.741 218.116 140.904 217.657 141.231 217.23C141.557 216.799 142 216.461 142.559 216.218C143.123 215.974 143.751 215.853 144.443 215.853C145.495 215.853 146.333 216.118 146.958 216.649C147.584 217.175 147.905 217.917 147.921 218.874V222.925C147.921 223.733 148.035 224.377 148.262 224.859V225H146.203ZM143.987 223.547C144.385 223.547 144.759 223.451 145.107 223.257C145.461 223.063 145.727 222.803 145.904 222.477V220.783H144.817C144.07 220.783 143.508 220.913 143.132 221.173C142.755 221.433 142.567 221.801 142.567 222.277C142.567 222.665 142.695 222.975 142.949 223.207C143.209 223.434 143.555 223.547 143.987 223.547Z" fill="#008BD2"/>
<path d="M154.906 217.861C154.641 217.817 154.367 217.795 154.084 217.795C153.16 217.795 152.538 218.149 152.217 218.857V225H150.2V216.019H152.125L152.175 217.023C152.662 216.243 153.337 215.853 154.201 215.853C154.488 215.853 154.726 215.891 154.914 215.969L154.906 217.861Z" fill="#008BD2"/>
<path d="M160.14 225.166C158.861 225.166 157.824 224.765 157.027 223.962C156.236 223.154 155.84 222.081 155.84 220.742V220.493C155.84 219.596 156.011 218.797 156.355 218.094C156.703 217.385 157.19 216.835 157.815 216.442C158.441 216.049 159.138 215.853 159.907 215.853C161.13 215.853 162.074 216.243 162.738 217.023C163.407 217.803 163.742 218.907 163.742 220.335V221.148H157.874C157.934 221.89 158.181 222.477 158.612 222.908C159.049 223.34 159.597 223.556 160.256 223.556C161.18 223.556 161.933 223.182 162.514 222.435L163.601 223.473C163.241 224.009 162.76 224.427 162.157 224.726C161.559 225.019 160.887 225.166 160.14 225.166ZM159.899 217.471C159.346 217.471 158.897 217.665 158.554 218.052C158.217 218.44 158.001 218.979 157.907 219.671H161.75V219.521C161.706 218.846 161.526 218.337 161.21 217.994C160.895 217.646 160.458 217.471 159.899 217.471Z" fill="#008BD2"/>
<path d="M167.357 216.019L167.415 217.056C168.079 216.254 168.951 215.853 170.03 215.853C171.9 215.853 172.852 216.923 172.885 219.065V225H170.868V219.181C170.868 218.611 170.744 218.191 170.495 217.919C170.251 217.643 169.85 217.504 169.291 217.504C168.478 217.504 167.872 217.872 167.473 218.608V225H165.456V216.019H167.357Z" fill="#008BD2"/>
<path d="M177.646 213.835V216.019H179.231V217.513H177.646V222.526C177.646 222.869 177.712 223.118 177.845 223.273C177.983 223.423 178.227 223.498 178.575 223.498C178.808 223.498 179.043 223.47 179.281 223.415V224.975C178.822 225.102 178.379 225.166 177.953 225.166C176.403 225.166 175.629 224.311 175.629 222.601V217.513H174.151V216.019H175.629V213.835H177.646Z" fill="#008BD2"/>
<path d="M185.984 222.56C185.984 222.2 185.834 221.926 185.535 221.738C185.242 221.55 184.752 221.384 184.066 221.24C183.38 221.096 182.807 220.913 182.348 220.692C181.341 220.205 180.837 219.499 180.837 218.575C180.837 217.8 181.164 217.153 181.817 216.633C182.47 216.113 183.3 215.853 184.307 215.853C185.38 215.853 186.247 216.118 186.905 216.649C187.569 217.181 187.901 217.87 187.901 218.716H185.884C185.884 218.329 185.74 218.008 185.452 217.753C185.165 217.493 184.783 217.363 184.307 217.363C183.864 217.363 183.502 217.466 183.219 217.67C182.943 217.875 182.804 218.149 182.804 218.492C182.804 218.802 182.935 219.043 183.195 219.214C183.455 219.386 183.98 219.56 184.772 219.737C185.563 219.909 186.183 220.116 186.631 220.36C187.085 220.598 187.42 220.886 187.636 221.223C187.857 221.561 187.968 221.97 187.968 222.452C187.968 223.26 187.633 223.915 186.963 224.419C186.294 224.917 185.416 225.166 184.332 225.166C183.596 225.166 182.94 225.033 182.365 224.768C181.789 224.502 181.341 224.137 181.02 223.672C180.699 223.207 180.538 222.706 180.538 222.169H182.497C182.525 222.645 182.705 223.013 183.037 223.273C183.369 223.528 183.809 223.655 184.357 223.655C184.888 223.655 185.292 223.556 185.569 223.356C185.845 223.152 185.984 222.886 185.984 222.56Z" fill="#008BD2"/>
<path d="M193.927 220.443C193.927 219.059 194.248 217.95 194.89 217.114C195.532 216.273 196.393 215.853 197.472 215.853C198.423 215.853 199.193 216.185 199.779 216.849V212.25H201.796V225H199.97L199.871 224.07C199.267 224.801 198.462 225.166 197.455 225.166C196.404 225.166 195.551 224.743 194.898 223.896C194.251 223.049 193.927 221.898 193.927 220.443ZM195.944 220.617C195.944 221.53 196.119 222.244 196.467 222.759C196.821 223.268 197.322 223.522 197.97 223.522C198.794 223.522 199.397 223.154 199.779 222.418V218.583C199.408 217.864 198.811 217.504 197.986 217.504C197.333 217.504 196.83 217.764 196.476 218.285C196.121 218.799 195.944 219.577 195.944 220.617Z" fill="#008BD2"/>
<path d="M209.512 224.12C208.92 224.817 208.078 225.166 206.988 225.166C206.014 225.166 205.276 224.881 204.772 224.311C204.274 223.741 204.025 222.917 204.025 221.837V216.019H206.042V221.812C206.042 222.952 206.515 223.522 207.461 223.522C208.441 223.522 209.102 223.171 209.445 222.468V216.019H211.462V225H209.562L209.512 224.12Z" fill="#008BD2"/>
<path d="M227.507 221.065C227.386 222.355 226.91 223.362 226.08 224.087C225.25 224.806 224.146 225.166 222.768 225.166C221.805 225.166 220.955 224.939 220.219 224.485C219.489 224.026 218.924 223.376 218.526 222.535C218.128 221.694 217.92 220.717 217.903 219.604V218.476C217.903 217.336 218.105 216.331 218.509 215.462C218.913 214.594 219.492 213.924 220.244 213.454C221.002 212.983 221.877 212.748 222.867 212.748C224.201 212.748 225.275 213.111 226.088 213.835C226.902 214.56 227.375 215.584 227.507 216.907H225.416C225.316 216.038 225.062 215.413 224.652 215.031C224.248 214.643 223.653 214.45 222.867 214.45C221.954 214.45 221.251 214.785 220.759 215.454C220.272 216.118 220.023 217.095 220.012 218.384V219.455C220.012 220.761 220.244 221.757 220.709 222.443C221.18 223.13 221.866 223.473 222.768 223.473C223.592 223.473 224.212 223.287 224.627 222.917C225.042 222.546 225.305 221.929 225.416 221.065H227.507Z" fill="#008BD2"/>
<path d="M236.526 219.878H231.662V225H229.562V212.914H237.24V214.607H231.662V218.202H236.526V219.878Z" fill="#008BD2"/>
<path d="M239.078 225V212.914H243.221C244.587 212.914 245.628 213.188 246.342 213.736C247.055 214.284 247.412 215.1 247.412 216.185C247.412 216.738 247.263 217.236 246.964 217.679C246.665 218.121 246.228 218.465 245.653 218.708C246.306 218.885 246.809 219.22 247.163 219.712C247.523 220.199 247.703 220.786 247.703 221.472C247.703 222.607 247.338 223.478 246.607 224.087C245.882 224.696 244.842 225 243.486 225H239.078ZM241.179 219.546V223.323H243.511C244.17 223.323 244.684 223.16 245.055 222.833C245.426 222.507 245.611 222.053 245.611 221.472C245.611 220.216 244.969 219.574 243.685 219.546H241.179ZM241.179 218.002H243.237C243.89 218.002 244.399 217.856 244.764 217.562C245.135 217.264 245.321 216.843 245.321 216.301C245.321 215.703 245.149 215.271 244.806 215.006C244.468 214.74 243.94 214.607 243.221 214.607H241.179V218.002Z" fill="#008BD2"/>
<path d="M252.073 223.323H257.56V225H249.973V212.914H252.073V223.323Z" fill="#008BD2"/>
</svg>
